<?xml version="1.0" encoding="utf-8"?>
<!-- Generator: Adobe Illustrator 19.1.0, SVG Export Plug-In . SVG Version: 6.00 Build 0)  -->
<!DOCTYPE svg PUBLIC "-//W3C//DTD SVG 1.1//EN" "http://www.w3.org/Graphics/SVG/1.1/DTD/svg11.dtd">
<svg version="1.1" id="Layer_1" xmlns="http://www.w3.org/2000/svg" xmlns:xlink="http://www.w3.org/1999/xlink" x="0px" y="0px"
	 viewBox="0 0 213 45.6" style="enable-background:new 0 0 213 45.6;" xml:space="preserve">
<g>
	<path d="M2,42.5v3H1v-7.6h2.8c0.8,0,1.5,0.2,2,0.6c0.5,0.4,0.7,1,0.7,1.7c0,0.7-0.2,1.3-0.7,1.7c-0.5,0.4-1.1,0.6-2,0.6H2z M2,41.7
		h1.8c0.5,0,0.9-0.1,1.2-0.4c0.3-0.3,0.4-0.6,0.4-1.1c0-0.5-0.1-0.8-0.4-1.1c-0.3-0.3-0.7-0.4-1.2-0.4H2V41.7z"/>
	<path d="M11,44.7h3.6v0.8H10v-7.6h1V44.7z"/>
	<path d="M22.3,43.5h-3.2l-0.7,2h-1l2.9-7.6h0.9l2.9,7.6h-1L22.3,43.5z M19.4,42.7H22l-1.3-3.6L19.4,42.7z"/>
	<path d="M33.2,45.5h-1l-3.8-5.9v5.9h-1v-7.6h1l3.8,5.9v-5.9h1V45.5z"/>
	<path d="M42.3,38.7h-2.4v6.8h-1v-6.8h-2.4v-0.8h5.9V38.7z"/>
	<path d="M47.8,42.1c-0.9-0.2-1.5-0.6-1.9-0.9c-0.4-0.4-0.6-0.8-0.6-1.3c0-0.6,0.2-1.1,0.7-1.5c0.5-0.4,1.1-0.6,1.9-0.6
		c0.5,0,1,0.1,1.4,0.3c0.4,0.2,0.7,0.5,1,0.8c0.2,0.4,0.3,0.7,0.3,1.2h-1c0-0.5-0.1-0.8-0.4-1.1c-0.3-0.3-0.7-0.4-1.2-0.4
		c-0.5,0-0.9,0.1-1.2,0.3c-0.3,0.2-0.4,0.5-0.4,0.9c0,0.3,0.1,0.6,0.4,0.8c0.3,0.2,0.7,0.4,1.3,0.6c0.6,0.2,1.1,0.4,1.5,0.6
		c0.4,0.2,0.6,0.5,0.8,0.7c0.2,0.3,0.3,0.6,0.3,1c0,0.6-0.2,1.1-0.7,1.5c-0.5,0.4-1.1,0.6-1.9,0.6c-0.5,0-1-0.1-1.5-0.3
		c-0.5-0.2-0.8-0.5-1-0.8c-0.2-0.3-0.4-0.7-0.4-1.2h1c0,0.5,0.2,0.8,0.5,1.1c0.3,0.3,0.8,0.4,1.4,0.4c0.5,0,0.9-0.1,1.2-0.3
		c0.3-0.2,0.4-0.5,0.4-0.9s-0.1-0.7-0.4-0.9S48.5,42.3,47.8,42.1z"/>
	<path d="M64.9,41.9c0,0.7-0.1,1.4-0.4,2c-0.3,0.6-0.6,1-1.1,1.3c-0.5,0.3-1,0.4-1.6,0.4c-0.6,0-1.1-0.1-1.6-0.4
		c-0.5-0.3-0.8-0.7-1.1-1.3c-0.3-0.5-0.4-1.2-0.4-1.9v-0.5c0-0.7,0.1-1.4,0.4-1.9c0.3-0.6,0.6-1,1.1-1.3c0.5-0.3,1-0.4,1.6-0.4
		c0.6,0,1.1,0.1,1.6,0.4c0.5,0.3,0.8,0.7,1.1,1.3c0.3,0.6,0.4,1.2,0.4,2V41.9z M63.9,41.4c0-0.9-0.2-1.6-0.5-2.1
		c-0.4-0.5-0.9-0.7-1.5-0.7c-0.6,0-1.1,0.2-1.5,0.7c-0.4,0.5-0.6,1.2-0.6,2v0.6c0,0.9,0.2,1.6,0.6,2.1c0.4,0.5,0.9,0.7,1.5,0.7
		c0.6,0,1.1-0.2,1.5-0.7c0.4-0.5,0.5-1.1,0.5-2V41.4z"/>
	<path d="M72.8,42.1h-3.2v3.4h-1v-7.6h4.7v0.8h-3.7v2.6h3.2V42.1z"/>
	<path d="M86.7,38.7h-2.4v6.8h-1v-6.8h-2.4v-0.8h5.9V38.7z"/>
	<path d="M96,45.5h-1V42h-3.8v3.5h-1v-7.6h1v3.3H95v-3.3h1V45.5z"/>
	<path d="M104.3,42H101v2.7h3.8v0.8H100v-7.6h4.8v0.8H101v2.4h3.3V42z"/>
	<path d="M114.8,43.1l0.1,1l0.2-0.9l1.5-5.3h0.8l1.5,5.3l0.2,0.9l0.2-1l1.2-5.2h1l-1.8,7.6h-0.9l-1.6-5.5l-0.1-0.6l-0.1,0.6
		l-1.6,5.5h-0.9l-1.8-7.6h1L114.8,43.1z"/>
	<path d="M130.8,41.9c0,0.7-0.1,1.4-0.4,2c-0.3,0.6-0.6,1-1.1,1.3c-0.5,0.3-1,0.4-1.6,0.4c-0.6,0-1.1-0.1-1.6-0.4
		c-0.5-0.3-0.8-0.7-1.1-1.3c-0.3-0.5-0.4-1.2-0.4-1.9v-0.5c0-0.7,0.1-1.4,0.4-1.9c0.3-0.6,0.6-1,1.1-1.3c0.5-0.3,1-0.4,1.6-0.4
		c0.6,0,1.1,0.1,1.6,0.4c0.5,0.3,0.8,0.7,1.1,1.3c0.3,0.6,0.4,1.2,0.4,2V41.9z M129.8,41.4c0-0.9-0.2-1.6-0.5-2.1
		c-0.4-0.5-0.9-0.7-1.5-0.7c-0.6,0-1.1,0.2-1.5,0.7c-0.4,0.5-0.6,1.2-0.6,2v0.6c0,0.9,0.2,1.6,0.6,2.1c0.4,0.5,0.9,0.7,1.5,0.7
		c0.6,0,1.1-0.2,1.5-0.7c0.4-0.5,0.5-1.1,0.5-2V41.4z"/>
	<path d="M137.3,42.4h-1.8v3.1h-1v-7.6h2.5c0.9,0,1.5,0.2,2,0.6c0.5,0.4,0.7,1,0.7,1.7c0,0.5-0.1,0.9-0.4,1.2
		c-0.3,0.4-0.6,0.6-1.1,0.8l1.8,3.2v0.1H139L137.3,42.4z M135.5,41.6h1.5c0.5,0,0.9-0.1,1.2-0.4c0.3-0.3,0.4-0.6,0.4-1
		c0-0.5-0.1-0.8-0.4-1.1c-0.3-0.3-0.7-0.4-1.2-0.4h-1.5V41.6z"/>
	<path d="M144.4,44.7h3.6v0.8h-4.6v-7.6h1V44.7z"/>
	<path d="M151.4,45.5v-7.6h2.1c0.7,0,1.2,0.1,1.8,0.4s0.9,0.7,1.2,1.2c0.3,0.5,0.4,1.2,0.4,1.9v0.5c0,0.7-0.1,1.3-0.4,1.9
		c-0.3,0.5-0.7,1-1.2,1.2c-0.5,0.3-1.1,0.4-1.8,0.4H151.4z M152.4,38.7v6h1.1c0.8,0,1.4-0.2,1.8-0.7c0.4-0.5,0.6-1.2,0.6-2.1v-0.4
		c0-0.9-0.2-1.5-0.6-2c-0.4-0.5-1-0.7-1.7-0.7H152.4z"/>
	<path d="M171.4,41.9c0,0.7-0.1,1.4-0.4,2c-0.3,0.6-0.6,1-1.1,1.3c-0.5,0.3-1,0.4-1.6,0.4c-0.6,0-1.1-0.1-1.6-0.4
		c-0.5-0.3-0.8-0.7-1.1-1.3c-0.3-0.5-0.4-1.2-0.4-1.9v-0.5c0-0.7,0.1-1.4,0.4-1.9c0.3-0.6,0.6-1,1.1-1.3c0.5-0.3,1-0.4,1.6-0.4
		c0.6,0,1.1,0.1,1.6,0.4c0.5,0.3,0.8,0.7,1.1,1.3c0.3,0.6,0.4,1.2,0.4,2V41.9z M170.4,41.4c0-0.9-0.2-1.6-0.5-2.1
		c-0.4-0.5-0.9-0.7-1.5-0.7c-0.6,0-1.1,0.2-1.5,0.7c-0.4,0.5-0.6,1.2-0.6,2v0.6c0,0.9,0.2,1.6,0.6,2.1c0.4,0.5,0.9,0.7,1.5,0.7
		c0.6,0,1.1-0.2,1.5-0.7c0.4-0.5,0.5-1.1,0.5-2V41.4z"/>
	<path d="M181,45.5h-1l-3.8-5.9v5.9h-1v-7.6h1l3.8,5.9v-5.9h1V45.5z"/>
	<path d="M186,44.7h3.6v0.8H185v-7.6h1V44.7z"/>
	<path d="M194.1,45.5h-1v-7.6h1V45.5z"/>
	<path d="M204,45.5h-1l-3.8-5.9v5.9h-1v-7.6h1l3.8,5.9v-5.9h1V45.5z"/>
	<path d="M212.3,42H209v2.7h3.8v0.8H208v-7.6h4.8v0.8H209v2.4h3.3V42z"/>
</g>
<path d="M41.8,15.6c0-2.4-1.2-4.6-2.4-5.9c-1.6-1.6-3.9-2.5-6.5-2.5c-5.9,0-10,5-10,11.2c0,6.6,4.8,11.2,11,11.2
	c2.9,0,4.8-1,5.9-1.8c1-0.8,1.6-1.6,2-2.3c0.7-1.2,0.7-1.8,0.7-1.8L42,23.3c0,0-0.2,0.5-0.7,1.4s-1.7,1.7-2.3,2.1
	c-0.5,0.3-1.9,0.9-4,0.9c-2.5,0-7.9-1.9-7.9-11.6v-0.3L41.8,15.6L41.8,15.6 M38.4,14.8H27.1v-0.4c0.4-3.5,2.4-6.7,5.6-6.8
	C36.4,7.6,38.4,10.5,38.4,14.8"/>
<path d="M67.1,7.2v0.6l0.8,0.1c0.9,0.1,2,0.3,2.5,0.8C70.8,9,71,9.4,70.8,10l-5,13.3l-4.6-12.2c-0.3-0.8-0.4-1.2-0.4-1.6
	c0-0.8,0.7-1.4,1.6-1.5l1.7-0.1V7.2H53.4v0.6h1.1c1,0.1,1.6,0,2.3,0.8C57.3,9.3,57,10,57,10l-5.1,13.3l-4.5-12.2
	c-0.3-0.8-0.5-1.3-0.5-1.8c0-0.9,0.9-1.2,1.4-1.3c0.5-0.1,1.4-0.1,1.4-0.1V7.3H39.2v0.6c0,0,0.7,0,1.7,0.1c0.9,0.1,1.6,0.7,2.3,2.5
	l6.7,18.1l0.2,0.6h0.3l0.2-0.6l6.8-17.5l6.3,17.4c0,0,0.3,0.6,0.2,0.6h0.4l0.2-0.6l6.4-16.3l0.6-1.3c0.4-0.9,0.6-1.2,0.8-1.6
	c0.7-0.8,1.7-1,3-1.3c0.8-0.2,1.2-0.1,1.7-0.2V7.2L67.1,7.2L67.1,7.2z"/>
<path d="M25.9,28.5c-1.9,0-3.6-2-4.9-3.6l-9.8-14.4L17,4c1.9-2,3-2.9,5.3-3.1l1.2-0.1V0.1h-10v0.7c0,0,0.5,0,1,0.1
	c1,0,1.9,0.5,1.9,1.4c0,1-0.9,1.9-1.8,2.9L7,13.7V4.4c0-3,1.4-3.3,1.8-3.4c0.7-0.1,1.3-0.1,1.3-0.1V0.2L0,0.1v0.7c0,0,0.7,0,1.4,0.1
	C2.1,1,3.1,1.3,3.1,4.4v20.8c0,3-0.7,3.4-2.5,3.4H0v0.8h10.1v-0.8H9.5c-1.9,0-2.7-0.3-2.7-3.3v-9.8l1.8-2l8.9,13.1
	c0,0,0.2,0.3,0.2,0.5c0,0.3,0,0.6-0.2,0.8c-0.3,0.4-1,0.6-2.1,0.6h-0.1c-0.3,0-0.4,0-0.4,0v0.8h11.8v-0.8L25.9,28.5L25.9,28.5z"/>
<path d="M97.8,8.9c-0.1-1.2-0.3-2.2-0.8-3.1s-1.1-1.6-1.9-2.2s-1.7-1-2.8-1.3C91.2,2,90,1.9,88.8,1.9c-0.8,0-1.6,0.1-2.5,0.3
	c-0.9,0.2-1.7,0.5-2.5,1S82.4,4.3,81.9,5c-0.5,0.8-0.7,1.7-0.7,2.9c0,1.1,0.3,2,0.8,2.7s1.3,1.3,2.1,1.7c0.9,0.4,1.9,0.8,3,1
	c1.1,0.3,2.3,0.5,3.5,0.7s2.4,0.5,3.5,0.8s2.1,0.8,3,1.3c0.9,0.6,1.6,1.3,2.2,2.2c0.5,0.9,0.8,2,0.8,3.4c0,1.5-0.3,2.7-0.9,3.7
	s-1.4,1.8-2.4,2.4s-2,1.1-3.2,1.3c-1.2,0.3-2.3,0.4-3.3,0.4c-1.6,0-3.2-0.2-4.6-0.5c-1.4-0.4-2.7-0.9-3.8-1.7
	c-1.1-0.8-1.9-1.8-2.5-3.1c-0.6-1.2-0.9-2.8-0.9-4.6h1.7c-0.1,1.5,0.1,2.8,0.7,3.9c0.5,1.1,1.2,1.9,2.2,2.6c0.9,0.7,2,1.2,3.3,1.5
	c1.2,0.3,2.6,0.5,3.9,0.5c0.8,0,1.7-0.1,2.7-0.3c1-0.2,1.8-0.6,2.6-1.1c0.8-0.5,1.5-1.1,2-2c0.5-0.8,0.8-1.8,0.8-3s-0.3-2.1-0.8-2.9
	c-0.5-0.7-1.3-1.3-2.2-1.8s-1.9-0.8-3-1.1c-1.1-0.3-2.3-0.5-3.5-0.8c-1.2-0.2-2.3-0.5-3.5-0.8c-1.1-0.3-2.2-0.7-3-1.3
	c-0.9-0.5-1.6-1.2-2.1-2.1c-0.5-0.8-0.8-1.9-0.8-3.3c0-1.3,0.3-2.5,0.8-3.4c0.6-1,1.3-1.7,2.2-2.3c0.9-0.6,1.9-1,3-1.3
	s2.2-0.4,3.3-0.4c1.5,0,2.8,0.2,4.1,0.5c1.3,0.3,2.4,0.8,3.3,1.5C97.2,3,98,3.9,98.6,5s0.9,2.4,1,3.9L97.8,8.9L97.8,8.9z"/>
<path d="M119.8,14.4c-0.1-0.9-0.3-1.7-0.7-2.4s-0.9-1.3-1.5-1.8s-1.4-0.8-2.2-1.1c-0.8-0.2-1.7-0.4-2.7-0.4c-1.3,0-2.5,0.3-3.5,0.8
	s-1.8,1.2-2.5,2.1s-1.2,1.9-1.5,3c-0.4,1.1-0.5,2.3-0.5,3.5c0,1.4,0.2,2.7,0.5,3.9s0.8,2.2,1.5,3.1s1.5,1.6,2.5,2.1s2.2,0.7,3.5,0.7
	c1,0,1.9-0.2,2.7-0.5c0.8-0.3,1.6-0.8,2.2-1.3c0.6-0.6,1.2-1.3,1.6-2.1c0.4-0.8,0.7-1.7,0.8-2.6h1.5c-0.2,1.2-0.5,2.4-1,3.3
	c-0.5,1-1.2,1.8-2,2.5s-1.7,1.2-2.7,1.5c-1,0.4-2.1,0.5-3.2,0.5c-1.7,0-3.2-0.3-4.4-0.9c-1.2-0.6-2.2-1.4-3-2.5
	c-0.8-1-1.3-2.2-1.7-3.6c-0.4-1.3-0.6-2.7-0.6-4.2s0.2-2.9,0.6-4.2c0.4-1.3,1-2.4,1.9-3.4c0.8-1,1.8-1.8,3-2.3
	c1.2-0.6,2.6-0.9,4.1-0.9c1.1,0,2.2,0.1,3.2,0.4s1.9,0.7,2.6,1.3c0.8,0.6,1.4,1.3,1.9,2.2s0.8,1.9,0.9,3.1h-1.3L119.8,14.4
	L119.8,14.4z"/>
<path d="M125.5,0h1.5v4.2h-1.5V0z M125.5,7.3h1.5v21.5h-1.5V7.3z"/>
<path d="M132.6,18.5v0.2c0,1.2,0.2,2.4,0.5,3.5s0.8,2.1,1.5,2.9c0.6,0.8,1.4,1.5,2.4,2s2.1,0.7,3.4,0.7c2.1,0,3.8-0.6,5-1.6
	c1.2-1.1,2.1-2.6,2.5-4.6h1.5c-0.5,2.4-1.5,4.3-3,5.6c-1.5,1.3-3.6,2-6.1,2c-1.5,0-2.9-0.3-4.1-0.8c-1.2-0.6-2.1-1.3-2.9-2.3
	c-0.8-1-1.4-2.1-1.7-3.4c-0.4-1.3-0.6-2.7-0.6-4.3c0-1.5,0.2-2.9,0.6-4.2c0.4-1.3,1-2.5,1.8-3.5s1.8-1.8,3-2.4s2.6-0.9,4.2-0.9
	c1.5,0,2.8,0.3,3.9,0.8c1.1,0.5,2.1,1.3,2.8,2.2c0.8,0.9,1.3,2,1.7,3.3c0.4,1.2,0.6,2.6,0.6,4c0,0.1,0,0.3,0,0.5s0,0.3,0,0.4h-17
	L132.6,18.5L132.6,18.5z M148,17.2c-0.1-1.1-0.2-2.2-0.6-3.2c-0.3-1-0.8-1.9-1.5-2.7c-0.6-0.8-1.4-1.4-2.3-1.9
	c-0.9-0.5-2-0.7-3.1-0.7c-1.3,0-2.4,0.2-3.3,0.7c-1,0.5-1.8,1.1-2.4,1.9c-0.7,0.8-1.2,1.7-1.5,2.7c-0.4,1-0.6,2.1-0.7,3.2H148z"/>
<path d="M153.1,7.9h1.5v4.5h0.1c0.3-0.8,0.7-1.5,1.2-2.1s1.1-1.1,1.8-1.6c0.7-0.4,1.4-0.8,2.2-1s1.6-0.3,2.4-0.3
	c1.2,0,2.3,0.1,3.1,0.4c0.9,0.3,1.6,0.7,2.1,1.2s1,1,1.3,1.6s0.5,1.2,0.7,1.9c0.1,0.6,0.2,1.2,0.2,1.8c0,0.6,0,1.1,0,1.5v13h-1.5
	V15.6c0-0.5,0-1.2-0.1-2s-0.3-1.5-0.7-2.3c-0.4-0.7-1-1.3-1.8-1.9c-0.8-0.5-1.9-0.8-3.3-0.8c-1.2,0-2.3,0.2-3.2,0.7
	c-0.9,0.4-1.7,1-2.4,1.8s-1.1,1.7-1.5,2.8c-0.3,1.1-0.5,2.2-0.5,3.5v11.3h-1.5V7.9L153.1,7.9L153.1,7.9z"/>
<path d="M190,14.4c-0.1-0.9-0.3-1.7-0.7-2.4s-0.9-1.3-1.5-1.8s-1.4-0.8-2.2-1.1c-0.8-0.2-1.7-0.4-2.7-0.4c-1.3,0-2.5,0.3-3.5,0.8
	s-1.8,1.2-2.5,2.1s-1.2,1.9-1.5,3c-0.4,1.1-0.5,2.3-0.5,3.5c0,1.4,0.2,2.7,0.5,3.9s0.8,2.2,1.5,3.1s1.5,1.6,2.5,2.1s2.2,0.7,3.5,0.7
	c1,0,1.9-0.2,2.7-0.5s1.6-0.8,2.2-1.3c0.6-0.6,1.2-1.3,1.6-2.1c0.4-0.8,0.7-1.7,0.8-2.6h1.5c-0.2,1.2-0.5,2.4-1,3.3
	c-0.5,1-1.2,1.8-2,2.5s-1.7,1.2-2.7,1.5c-1,0.4-2.1,0.5-3.2,0.5c-1.7,0-3.2-0.3-4.4-0.9s-2.2-1.4-3-2.5c-0.8-1-1.3-2.2-1.7-3.6
	c-0.4-1.3-0.6-2.7-0.6-4.2s0.2-2.9,0.6-4.2c0.4-1.3,1-2.4,1.9-3.4c0.8-1,1.8-1.8,3-2.3c1.2-0.6,2.6-0.9,4.1-0.9
	c1.1,0,2.2,0.1,3.2,0.4s1.9,0.7,2.6,1.3c0.8,0.6,1.4,1.3,1.9,2.2s0.8,1.9,0.9,3.1H190L190,14.4L190,14.4z"/>
<path d="M196,18.5v0.2c0,1.2,0.2,2.4,0.5,3.5s0.8,2.1,1.5,2.9c0.6,0.8,1.4,1.5,2.4,2s2.1,0.7,3.4,0.7c2.1,0,3.8-0.6,5-1.6
	c1.2-1.1,2.1-2.6,2.5-4.6h1.5c-0.5,2.4-1.5,4.3-3,5.6c-1.5,1.3-3.6,2-6.1,2c-1.5,0-2.9-0.3-4.1-0.8c-1.2-0.6-2.1-1.3-2.9-2.3
	c-0.8-1-1.4-2.1-1.7-3.4c-0.4-1.3-0.6-2.7-0.6-4.3c0-1.5,0.2-2.9,0.6-4.2c0.4-1.3,1-2.5,1.8-3.5s1.8-1.8,3-2.4s2.6-0.9,4.2-0.9
	c1.5,0,2.8,0.3,3.9,0.8c1.1,0.5,2.1,1.3,2.8,2.2c0.8,0.9,1.3,2,1.7,3.3c0.4,1.2,0.6,2.6,0.6,4c0,0.1,0,0.3,0,0.5s0,0.3,0,0.4h-17
	L196,18.5L196,18.5z M211.4,17.2c-0.1-1.1-0.2-2.2-0.6-3.2c-0.3-1-0.8-1.9-1.5-2.7c-0.6-0.8-1.4-1.4-2.3-1.9c-0.9-0.5-2-0.7-3.1-0.7
	c-1.3,0-2.4,0.2-3.3,0.7c-1,0.5-1.8,1.1-2.4,1.9c-0.7,0.8-1.2,1.7-1.5,2.7c-0.4,1-0.6,2.1-0.7,3.2H211.4z"/>
</svg>
