<?xml version="1.0" encoding="utf-8"?>
<!-- Generator: Adobe Illustrator 19.1.0, SVG Export Plug-In . SVG Version: 6.00 Build 0)  -->
<!DOCTYPE svg PUBLIC "-//W3C//DTD SVG 1.1//EN" "http://www.w3.org/Graphics/SVG/1.1/DTD/svg11.dtd">
<svg version="1.1" id="Layer_1" xmlns="http://www.w3.org/2000/svg" xmlns:xlink="http://www.w3.org/1999/xlink" x="0px" y="0px"
	 viewBox="-373 257.4 213 46.6" style="enable-background:new -373 257.4 213 46.6;" xml:space="preserve">
<path d="M-331.2,273c0-2.4-1.2-4.6-2.4-5.9c-1.6-1.6-3.9-2.5-6.5-2.5c-5.9,0-10,5-10,11.2c0,6.6,4.8,11.2,11,11.2
	c2.9,0,4.8-1,5.9-1.8c1-0.8,1.6-1.6,2-2.3c0.7-1.2,0.7-1.8,0.7-1.8l-0.5-0.4c0,0-0.2,0.5-0.7,1.4c-0.5,0.9-1.7,1.7-2.3,2.1
	c-0.5,0.3-1.9,0.9-4,0.9c-2.5,0-7.9-1.9-7.9-11.6v-0.3L-331.2,273L-331.2,273 M-334.6,272.2h-11.3v-0.4c0.4-3.5,2.4-6.7,5.6-6.8
	C-336.6,265-334.6,267.9-334.6,272.2"/>
<path d="M-305.9,264.6v0.6l0.8,0.1c0.9,0.1,2,0.3,2.5,0.8c0.4,0.3,0.6,0.7,0.4,1.3l-5,13.3l-4.6-12.2c-0.3-0.8-0.4-1.2-0.4-1.6
	c0-0.8,0.7-1.4,1.6-1.5l1.7-0.1v-0.7h-10.7v0.6h1.1c1,0.1,1.6,0,2.3,0.8c0.5,0.7,0.2,1.4,0.2,1.4l-5.1,13.3l-4.5-12.2
	c-0.3-0.8-0.5-1.3-0.5-1.8c0-0.9,0.9-1.2,1.4-1.3s1.4-0.1,1.4-0.1v-0.6h-10.5v0.6c0,0,0.7,0,1.7,0.1c0.9,0.1,1.6,0.7,2.3,2.5
	l6.7,18.1l0.2,0.6h0.3l0.2-0.6l6.8-17.5l6.3,17.4c0,0,0.3,0.6,0.2,0.6h0.4l0.2-0.6l6.4-16.3l0.6-1.3c0.4-0.9,0.6-1.2,0.8-1.6
	c0.7-0.8,1.7-1,3-1.3c0.8-0.2,1.2-0.1,1.7-0.2v-0.6H-305.9z"/>
<path d="M-347.1,285.9c-1.9,0-3.6-2-4.9-3.6l-9.8-14.4l5.8-6.5c1.9-2,3-2.9,5.3-3.1l1.2-0.1v-0.7h-10v0.7c0,0,0.5,0,1,0.1
	c1,0,1.9,0.5,1.9,1.4c0,1-0.9,1.9-1.8,2.9l-7.6,8.5v-9.3c0-3,1.4-3.3,1.8-3.4c0.7-0.1,1.3-0.1,1.3-0.1v-0.7l-10.1-0.1v0.7
	c0,0,0.7,0,1.4,0.1c0.7,0.1,1.7,0.4,1.7,3.5v20.8c0,3-0.7,3.4-2.5,3.4h-0.6v0.8h10.1V286h-0.6c-1.9,0-2.7-0.3-2.7-3.3v-9.8l1.8-2
	l8.9,13.1c0,0,0.2,0.3,0.2,0.5c0,0.3,0,0.6-0.2,0.8c-0.3,0.4-1,0.6-2.1,0.6h-0.1c-0.3,0-0.4,0-0.4,0v0.8h11.8v-0.8H-347.1z"/>
<path d="M-275.2,266.3c-0.1-1.2-0.3-2.2-0.8-3.1c-0.5-0.9-1.1-1.6-1.9-2.2c-0.8-0.6-1.7-1-2.8-1.3c-1.1-0.3-2.3-0.4-3.5-0.4
	c-0.8,0-1.6,0.1-2.5,0.3c-0.9,0.2-1.7,0.5-2.5,1c-0.8,0.5-1.4,1.1-1.9,1.8c-0.5,0.8-0.7,1.7-0.7,2.9c0,1.1,0.3,2,0.8,2.7
	c0.5,0.7,1.3,1.3,2.1,1.7c0.9,0.4,1.9,0.8,3,1c1.1,0.3,2.3,0.5,3.5,0.7c1.2,0.2,2.4,0.5,3.5,0.8c1.1,0.3,2.1,0.8,3,1.3
	c0.9,0.6,1.6,1.3,2.2,2.2c0.5,0.9,0.8,2,0.8,3.4c0,1.5-0.3,2.7-0.9,3.7c-0.6,1-1.4,1.8-2.4,2.4c-1,0.6-2,1.1-3.2,1.3
	c-1.2,0.3-2.3,0.4-3.3,0.4c-1.6,0-3.2-0.2-4.6-0.5c-1.4-0.4-2.7-0.9-3.8-1.7c-1.1-0.8-1.9-1.8-2.5-3.1c-0.6-1.2-0.9-2.8-0.9-4.6h1.7
	c-0.1,1.5,0.1,2.8,0.7,3.9c0.5,1.1,1.2,1.9,2.2,2.6c0.9,0.7,2,1.2,3.3,1.5c1.2,0.3,2.6,0.5,3.9,0.5c0.8,0,1.7-0.1,2.7-0.3
	c1-0.2,1.8-0.6,2.6-1.1c0.8-0.5,1.5-1.1,2-2c0.5-0.8,0.8-1.8,0.8-3c0-1.2-0.3-2.1-0.8-2.9c-0.5-0.7-1.3-1.3-2.2-1.8s-1.9-0.8-3-1.1
	c-1.1-0.3-2.3-0.5-3.5-0.8c-1.2-0.2-2.3-0.5-3.5-0.8c-1.1-0.3-2.2-0.7-3-1.3c-0.9-0.5-1.6-1.2-2.1-2.1c-0.5-0.8-0.8-1.9-0.8-3.3
	c0-1.3,0.3-2.5,0.8-3.4c0.6-1,1.3-1.7,2.2-2.3c0.9-0.6,1.9-1,3-1.3c1.1-0.3,2.2-0.4,3.3-0.4c1.5,0,2.8,0.2,4.1,0.5
	c1.3,0.3,2.4,0.8,3.3,1.5c1,0.8,1.8,1.7,2.4,2.8s0.9,2.4,1,3.9H-275.2z"/>
<path d="M-253.2,271.8c-0.1-0.9-0.3-1.7-0.7-2.4s-0.9-1.3-1.5-1.8s-1.4-0.8-2.2-1.1c-0.8-0.2-1.7-0.4-2.7-0.4
	c-1.3,0-2.5,0.3-3.5,0.8s-1.8,1.2-2.5,2.1s-1.2,1.9-1.5,3c-0.4,1.1-0.5,2.3-0.5,3.5c0,1.4,0.2,2.7,0.5,3.9s0.8,2.2,1.5,3.1
	s1.5,1.6,2.5,2.1s2.2,0.7,3.5,0.7c1,0,1.9-0.2,2.7-0.5c0.8-0.3,1.6-0.8,2.2-1.3c0.6-0.6,1.2-1.3,1.6-2.1c0.4-0.8,0.7-1.7,0.8-2.6
	h1.5c-0.2,1.2-0.5,2.4-1,3.3c-0.5,1-1.2,1.8-2,2.5c-0.8,0.7-1.7,1.2-2.7,1.5c-1,0.4-2.1,0.5-3.2,0.5c-1.7,0-3.2-0.3-4.4-0.9
	c-1.2-0.6-2.2-1.4-3-2.5c-0.8-1-1.3-2.2-1.7-3.6c-0.4-1.3-0.6-2.7-0.6-4.2s0.2-2.9,0.6-4.2c0.4-1.3,1-2.4,1.9-3.4
	c0.8-1,1.8-1.8,3-2.3c1.2-0.6,2.6-0.9,4.1-0.9c1.1,0,2.2,0.1,3.2,0.4c1,0.3,1.9,0.7,2.6,1.3c0.8,0.6,1.4,1.3,1.9,2.2
	s0.8,1.9,0.9,3.1h-1.3V271.8z"/>
<path d="M-247.5,257.4h1.5v4.2h-1.5V257.4z M-247.5,264.7h1.5v21.5h-1.5V264.7z"/>
<path d="M-240.4,275.9v0.2c0,1.2,0.2,2.4,0.5,3.5c0.3,1.1,0.8,2.1,1.5,2.9c0.6,0.8,1.4,1.5,2.4,2s2.1,0.7,3.4,0.7
	c2.1,0,3.8-0.6,5-1.6c1.2-1.1,2.1-2.6,2.5-4.6h1.5c-0.5,2.4-1.5,4.3-3,5.6c-1.5,1.3-3.6,2-6.1,2c-1.5,0-2.9-0.3-4.1-0.8
	c-1.2-0.6-2.1-1.3-2.9-2.3c-0.8-1-1.4-2.1-1.7-3.4c-0.4-1.3-0.6-2.7-0.6-4.3c0-1.5,0.2-2.9,0.6-4.2c0.4-1.3,1-2.5,1.8-3.5
	s1.8-1.8,3-2.4c1.2-0.6,2.6-0.9,4.2-0.9c1.5,0,2.8,0.3,3.9,0.8c1.1,0.5,2.1,1.3,2.8,2.2c0.8,0.9,1.3,2,1.7,3.3
	c0.4,1.2,0.6,2.6,0.6,4c0,0.1,0,0.3,0,0.5c0,0.2,0,0.3,0,0.4h-17V275.9z M-225,274.6c-0.1-1.1-0.2-2.2-0.6-3.2
	c-0.3-1-0.8-1.9-1.5-2.7c-0.6-0.8-1.4-1.4-2.3-1.9c-0.9-0.5-2-0.7-3.1-0.7c-1.3,0-2.4,0.2-3.3,0.7c-1,0.5-1.8,1.1-2.4,1.9
	c-0.7,0.8-1.2,1.7-1.5,2.7c-0.4,1-0.6,2.1-0.7,3.2H-225z"/>
<path d="M-219.9,265.3h1.5v4.5h0.1c0.3-0.8,0.7-1.5,1.2-2.1c0.5-0.6,1.1-1.1,1.8-1.6c0.7-0.4,1.4-0.8,2.2-1c0.8-0.2,1.6-0.3,2.4-0.3
	c1.2,0,2.3,0.1,3.1,0.4c0.9,0.3,1.6,0.7,2.1,1.2s1,1,1.3,1.6s0.5,1.2,0.7,1.9c0.1,0.6,0.2,1.2,0.2,1.8c0,0.6,0,1.1,0,1.5v13h-1.5
	V273c0-0.5,0-1.2-0.1-2c-0.1-0.8-0.3-1.5-0.7-2.3c-0.4-0.7-1-1.3-1.8-1.9c-0.8-0.5-1.9-0.8-3.3-0.8c-1.2,0-2.3,0.2-3.2,0.7
	c-0.9,0.4-1.7,1-2.4,1.8c-0.7,0.8-1.1,1.7-1.5,2.8c-0.3,1.1-0.5,2.2-0.5,3.5v11.3h-1.5v-20.8H-219.9z"/>
<path d="M-183,271.8c-0.1-0.9-0.3-1.7-0.7-2.4s-0.9-1.3-1.5-1.8s-1.4-0.8-2.2-1.1c-0.8-0.2-1.7-0.4-2.7-0.4c-1.3,0-2.5,0.3-3.5,0.8
	s-1.8,1.2-2.5,2.1s-1.2,1.9-1.5,3c-0.4,1.1-0.5,2.3-0.5,3.5c0,1.4,0.2,2.7,0.5,3.9s0.8,2.2,1.5,3.1s1.5,1.6,2.5,2.1s2.2,0.7,3.5,0.7
	c1,0,1.9-0.2,2.7-0.5c0.8-0.3,1.6-0.8,2.2-1.3c0.6-0.6,1.2-1.3,1.6-2.1c0.4-0.8,0.7-1.7,0.8-2.6h1.5c-0.2,1.2-0.5,2.4-1,3.3
	c-0.5,1-1.2,1.8-2,2.5c-0.8,0.7-1.7,1.2-2.7,1.5c-1,0.4-2.1,0.5-3.2,0.5c-1.7,0-3.2-0.3-4.4-0.9c-1.2-0.6-2.2-1.4-3-2.5
	c-0.8-1-1.3-2.2-1.7-3.6c-0.4-1.3-0.6-2.7-0.6-4.2s0.2-2.9,0.6-4.2c0.4-1.3,1-2.4,1.9-3.4c0.8-1,1.8-1.8,3-2.3
	c1.2-0.6,2.6-0.9,4.1-0.9c1.1,0,2.2,0.1,3.2,0.4c1,0.3,1.9,0.7,2.6,1.3c0.8,0.6,1.4,1.3,1.9,2.2s0.8,1.9,0.9,3.1h-1.3V271.8z"/>
<path d="M-177,275.9v0.2c0,1.2,0.2,2.4,0.5,3.5c0.3,1.1,0.8,2.1,1.5,2.9c0.6,0.8,1.4,1.5,2.4,2s2.1,0.7,3.4,0.7c2.1,0,3.8-0.6,5-1.6
	c1.2-1.1,2.1-2.6,2.5-4.6h1.5c-0.5,2.4-1.5,4.3-3,5.6c-1.5,1.3-3.6,2-6.1,2c-1.5,0-2.9-0.3-4.1-0.8c-1.2-0.6-2.1-1.3-2.9-2.3
	c-0.8-1-1.4-2.1-1.7-3.4c-0.4-1.3-0.6-2.7-0.6-4.3c0-1.5,0.2-2.9,0.6-4.2c0.4-1.3,1-2.5,1.8-3.5s1.8-1.8,3-2.4
	c1.2-0.6,2.6-0.9,4.2-0.9c1.5,0,2.8,0.3,3.9,0.8c1.1,0.5,2.1,1.3,2.8,2.2c0.8,0.9,1.3,2,1.7,3.3c0.4,1.2,0.6,2.6,0.6,4
	c0,0.1,0,0.3,0,0.5c0,0.2,0,0.3,0,0.4h-17V275.9z M-161.6,274.6c-0.1-1.1-0.2-2.2-0.6-3.2c-0.3-1-0.8-1.9-1.5-2.7
	c-0.6-0.8-1.4-1.4-2.3-1.9c-0.9-0.5-2-0.7-3.1-0.7c-1.3,0-2.4,0.2-3.3,0.7c-1,0.5-1.8,1.1-2.4,1.9c-0.7,0.8-1.2,1.7-1.5,2.7
	c-0.4,1-0.6,2.1-0.7,3.2H-161.6z"/>
<g>
	<path d="M-370.9,301.1v2.8h-0.9v-7.1h2.6c0.8,0,1.4,0.2,1.8,0.6s0.7,0.9,0.7,1.6c0,0.7-0.2,1.2-0.6,1.6c-0.4,0.4-1,0.6-1.9,0.6
		L-370.9,301.1L-370.9,301.1z M-370.9,300.4h1.7c0.5,0,0.9-0.1,1.2-0.4c0.3-0.3,0.4-0.6,0.4-1c0-0.4-0.1-0.8-0.4-1
		c-0.3-0.2-0.6-0.4-1.1-0.4h-1.8V300.4z"/>
	<path d="M-362.5,303.1h3.4v0.8h-4.3v-7.1h0.9V303.1z"/>
	<path d="M-351.9,302h-3l-0.7,1.9h-1l2.7-7.1h0.9l2.7,7.1h-1L-351.9,302z M-354.6,301.3h2.4l-1.2-3.3L-354.6,301.3z"/>
	<path d="M-341.8,303.9h-0.9l-3.6-5.5v5.5h-0.9v-7.1h0.9l3.6,5.5v-5.5h0.9V303.9z"/>
	<path d="M-333.2,297.6h-2.3v6.3h-0.9v-6.3h-2.3v-0.8h5.5V297.6z"/>
	<path d="M-328.1,300.7c-0.8-0.2-1.4-0.5-1.8-0.9s-0.5-0.8-0.5-1.2c0-0.6,0.2-1,0.7-1.4s1-0.5,1.7-0.5c0.5,0,0.9,0.1,1.3,0.3
		c0.4,0.2,0.7,0.4,0.9,0.8c0.2,0.4,0.3,0.7,0.3,1.1h-0.9c0-0.4-0.1-0.8-0.4-1c-0.3-0.2-0.7-0.4-1.2-0.4s-0.8,0.1-1.1,0.3
		c-0.3,0.2-0.4,0.5-0.4,0.8c0,0.3,0.1,0.5,0.4,0.7c0.3,0.2,0.7,0.4,1.3,0.6c0.6,0.2,1.1,0.3,1.4,0.5c0.3,0.2,0.6,0.4,0.7,0.7
		c0.1,0.3,0.2,0.6,0.2,0.9c0,0.6-0.2,1-0.7,1.4s-1,0.5-1.8,0.5c-0.5,0-0.9-0.1-1.4-0.3c-0.5-0.2-0.7-0.4-1-0.8
		c-0.3-0.4-0.3-0.7-0.3-1.1h0.9c0,0.4,0.2,0.8,0.5,1c0.3,0.2,0.7,0.4,1.3,0.4c0.5,0,0.9-0.1,1.1-0.3c0.2-0.2,0.4-0.5,0.4-0.8
		c0-0.3-0.1-0.6-0.4-0.8C-327.2,301-327.4,300.9-328.1,300.7z"/>
	<path d="M-312.1,300.6c0,0.7-0.1,1.3-0.4,1.8s-0.6,0.9-1,1.2c-0.4,0.3-0.9,0.4-1.5,0.4s-1.1-0.1-1.5-0.4c-0.4-0.3-0.8-0.7-1-1.2
		s-0.4-1.1-0.4-1.8v-0.5c0-0.7,0.1-1.3,0.4-1.8s0.6-0.9,1-1.2c0.4-0.3,0.9-0.4,1.5-0.4s1.1,0.1,1.5,0.4c0.4,0.3,0.8,0.7,1,1.2
		s0.4,1.1,0.4,1.8V300.6z M-313,300.1c0-0.8-0.2-1.5-0.5-1.9c-0.3-0.4-0.8-0.7-1.4-0.7s-1.1,0.2-1.4,0.7c-0.3,0.5-0.5,1.1-0.5,1.9
		v0.5c0,0.8,0.2,1.5,0.5,1.9c0.3,0.4,0.8,0.7,1.4,0.7s1.1-0.2,1.4-0.7s0.5-1.1,0.5-1.9V300.1z"/>
	<path d="M-304.7,300.8h-3v3.1h-0.9v-7.1h4.4v0.8h-3.5v2.4h3V300.8z"/>
	<path d="M-291.7,297.6h-2.3v6.3h-0.9v-6.3h-2.3v-0.8h5.5C-291.7,296.8-291.7,297.6-291.7,297.6z"/>
	<path d="M-283,303.9h-1v-3.3h-3.6v3.3h-0.9v-7.1h0.9v3.1h3.6v-3.1h1V303.9z"/>
	<path d="M-275.3,300.6h-3.1v2.5h3.6v0.8h-4.5v-7.1h4.5v0.8h-3.5v2.3h3.1L-275.3,300.6L-275.3,300.6z"/>
	<path d="M-265.4,301.7l0.1,0.9l0.2-0.8l1.4-5h0.8l1.4,5l0.2,0.9l0.2-1l1.1-4.9h0.9l-1.7,7.1h-0.9l-1.5-5.2l-0.1-0.5l-0.1,0.5
		l-1.5,5.2h-0.9l-1.7-7.1h0.9L-265.4,301.7z"/>
	<path d="M-250.5,300.6c0,0.7-0.1,1.3-0.4,1.8c-0.3,0.5-0.6,0.9-1,1.2c-0.4,0.3-0.9,0.4-1.5,0.4c-0.6,0-1.1-0.1-1.5-0.4
		c-0.4-0.3-0.8-0.7-1-1.2c-0.2-0.5-0.4-1.1-0.4-1.8v-0.5c0-0.7,0.1-1.3,0.4-1.8c0.3-0.5,0.6-0.9,1-1.2c0.4-0.3,0.9-0.4,1.5-0.4
		c0.6,0,1.1,0.1,1.5,0.4c0.4,0.3,0.8,0.7,1,1.2c0.2,0.5,0.4,1.1,0.4,1.8V300.6z M-251.4,300.1c0-0.8-0.2-1.5-0.5-1.9
		c-0.3-0.4-0.8-0.7-1.4-0.7s-1.1,0.2-1.4,0.7c-0.3,0.5-0.5,1.1-0.5,1.9v0.5c0,0.8,0.2,1.5,0.5,1.9c0.3,0.5,0.8,0.7,1.4,0.7
		s1.1-0.2,1.4-0.7c0.3-0.5,0.5-1.1,0.5-1.9V300.1z"/>
	<path d="M-244.4,301h-1.6v2.9h-1v-7.1h2.4c0.8,0,1.4,0.2,1.8,0.5c0.4,0.4,0.6,0.9,0.6,1.6c0,0.4-0.1,0.8-0.4,1.2
		c-0.2,0.3-0.6,0.6-1,0.7l1.7,3v0.1h-1L-244.4,301z M-246,300.3h1.4c0.5,0,0.8-0.1,1.1-0.4c0.3-0.2,0.4-0.6,0.4-1s-0.1-0.8-0.4-1
		c-0.3-0.2-0.6-0.4-1.1-0.4h-1.4V300.3z"/>
	<path d="M-237.8,303.1h3.4v0.8h-4.3v-7.1h0.9L-237.8,303.1L-237.8,303.1z"/>
	<path d="M-231.2,303.9v-7.1h2c0.6,0,1.2,0.1,1.6,0.4c0.4,0.3,0.8,0.7,1.1,1.2s0.4,1.1,0.4,1.7v0.5c0,0.7-0.1,1.3-0.4,1.8
		c-0.3,0.5-0.6,0.9-1.1,1.2c-0.5,0.3-1,0.4-1.7,0.4h-1.9V303.9z M-230.3,297.6v5.6h1c0.7,0,1.3-0.2,1.7-0.7c0.4-0.4,0.6-1.1,0.6-1.9
		v-0.4c0-0.8-0.2-1.4-0.6-1.9c-0.4-0.4-0.9-0.7-1.6-0.7C-229.2,297.6-230.3,297.6-230.3,297.6z"/>
	<path d="M-222.6,298.8l-0.5-0.4c0.3-0.4,0.5-0.9,0.5-1.3v-0.7h0.9v0.6c0,0.3-0.1,0.7-0.2,1C-222.2,298.3-222.4,298.6-222.6,298.8z"
		/>
	<path d="M-216.4,300.7c-0.8-0.2-1.4-0.5-1.8-0.9c-0.4-0.3-0.5-0.8-0.5-1.2c0-0.6,0.2-1,0.7-1.4c0.4-0.4,1-0.5,1.7-0.5
		c0.5,0,0.9,0.1,1.3,0.3c0.4,0.2,0.7,0.4,0.9,0.8c0.2,0.3,0.3,0.7,0.3,1.1h-0.9c0-0.4-0.1-0.8-0.4-1c-0.3-0.2-0.7-0.4-1.2-0.4
		s-0.8,0.1-1.1,0.3s-0.4,0.5-0.4,0.8c0,0.3,0.1,0.5,0.4,0.7c0.2,0.2,0.7,0.4,1.3,0.6c0.6,0.2,1.1,0.3,1.4,0.5
		c0.3,0.2,0.6,0.4,0.7,0.7c0.2,0.3,0.2,0.6,0.2,0.9c0,0.6-0.2,1-0.7,1.4s-1,0.5-1.8,0.5c-0.5,0-0.9-0.1-1.4-0.3
		c-0.5-0.2-0.7-0.4-1-0.8c-0.2-0.3-0.3-0.7-0.3-1.1h0.9c0,0.4,0.2,0.8,0.5,1c0.3,0.2,0.7,0.4,1.3,0.4c0.5,0,0.9-0.1,1.1-0.3
		s0.4-0.5,0.4-0.8c0-0.3-0.1-0.6-0.4-0.8C-215.5,301-215.7,300.9-216.4,300.7z"/>
	<path d="M-204.9,301.1v2.8h-0.9v-7.1h2.6c0.8,0,1.4,0.2,1.8,0.6c0.4,0.4,0.7,0.9,0.7,1.6c0,0.7-0.2,1.2-0.6,1.6
		c-0.4,0.4-1,0.6-1.9,0.6L-204.9,301.1L-204.9,301.1z M-204.9,300.4h1.7c0.5,0,0.9-0.1,1.2-0.4c0.3-0.3,0.4-0.6,0.4-1
		c0-0.4-0.1-0.8-0.4-1c-0.3-0.2-0.6-0.4-1.1-0.4h-1.7L-204.9,300.4L-204.9,300.4z"/>
	<path d="M-192,300.6c0,0.7-0.1,1.3-0.4,1.8s-0.6,0.9-1,1.2c-0.4,0.3-0.9,0.4-1.5,0.4s-1.1-0.1-1.5-0.4c-0.4-0.3-0.8-0.7-1-1.2
		s-0.4-1.1-0.4-1.8v-0.5c0-0.7,0.1-1.3,0.4-1.8s0.6-0.9,1-1.2c0.4-0.3,0.9-0.4,1.5-0.4s1.1,0.1,1.5,0.4c0.4,0.3,0.8,0.7,1,1.2
		s0.4,1.1,0.4,1.8V300.6z M-192.9,300.1c0-0.8-0.2-1.5-0.5-1.9c-0.3-0.4-0.8-0.7-1.4-0.7c-0.6,0-1.1,0.2-1.4,0.7
		c-0.3,0.5-0.5,1.1-0.5,1.9v0.5c0,0.8,0.2,1.5,0.5,1.9c0.3,0.5,0.8,0.7,1.4,0.7c0.6,0,1.1-0.2,1.4-0.7s0.5-1.1,0.5-1.9V300.1z"/>
	<path d="M-185.9,301h-1.7v2.9h-0.9v-7.1h2.4c0.8,0,1.4,0.2,1.8,0.5c0.4,0.4,0.6,0.9,0.6,1.6c0,0.4-0.1,0.8-0.4,1.2
		c-0.2,0.3-0.6,0.6-1,0.7l1.7,3v0.1h-1L-185.9,301z M-187.5,300.3h1.4c0.5,0,0.8-0.1,1.1-0.4c0.3-0.2,0.4-0.6,0.4-1s-0.1-0.8-0.4-1
		c-0.3-0.2-0.6-0.4-1.1-0.4h-1.4V300.3z"/>
	<path d="M-175.7,297.6h-2.3v6.3h-0.9v-6.3h-2.3v-0.8h5.5V297.6z"/>
	<path d="M-169,302h-3l-0.7,1.9h-1l2.7-7.1h0.8l2.7,7.1h-1L-169,302z M-171.7,301.3h2.4l-1.2-3.3L-171.7,301.3z"/>
	<path d="M-163.4,303.1h3.4v0.8h-4.3v-7.1h0.9L-163.4,303.1L-163.4,303.1z"/>
</g>
</svg>
