<svg xmlns="http://www.w3.org/2000/svg" width="1305.387" height="1427.467"><g fill="#7fcc28"><path d="M87.654 1427.467H2.047v-9.8h85.607v9.8m0-144.983H2.047v-12.796l73.427-29.701-73.427.9v-9.226h85.607v12.227l-75.614 30.145 75.614-.773v9.224M63.31 1098.459c-.281 0-.758-.026-1.404-.059a20.385 20.385 0 00-1.423-.056v-9.099h3.055c5.821 0 10.207-1.341 13.183-4.026 2.97-2.696 4.446-6.68 4.446-11.934 0-4.744-1.427-8.465-4.292-11.181-2.837-2.708-6.773-4.052-11.781-4.052-4.01 0-7.092.81-9.262 2.459-2.164 1.661-4.34 5.369-6.521 11.158a519.83 519.83 0 00-2.165 5.779c-2.518 6.939-4.42 11.127-5.67 12.581-2.127 2.355-4.63 4.128-7.542 5.302-2.917 1.158-6.292 1.75-10.149 1.75-7.455 0-13.279-2.057-17.472-6.177-4.211-4.117-6.313-9.85-6.313-17.176 0-6.95 1.931-12.42 5.823-16.368 3.885-3.936 9.275-5.928 16.122-5.928.212 0 .589.035 1.084.068.492.047.854.07 1.087.07v8.782h-.897c-4.797 0-8.514 1.17-11.137 3.513-2.598 2.356-3.913 5.678-3.913 9.988 0 4.448 1.258 7.93 3.76 10.499 2.484 2.55 5.885 3.836 10.132 3.836 4.047 0 7.179-.879 9.396-2.617 2.216-1.73 4.423-5.542 6.566-11.388.245-.706.638-1.751 1.158-3.116 3.3-8.94 5.764-14.264 7.394-16.015a18.03 18.03 0 017.172-4.69c2.828-1.02 6.185-1.545 10.117-1.545 8.115 0 14.44 2.24 18.975 6.735 4.514 4.492 6.768 10.737 6.768 18.733 0 7.975-2.218 13.994-6.675 18.066-4.443 4.082-10.985 6.108-19.622 6.108M10.826 921.563h-8.78V869.42h8.78v20.51h76.828v9.791H10.826v21.842m76.828-181.23H2.047v-9.78h85.607v9.78m-76.828-138.98h-8.78v-52.142h8.78v20.51h76.828v9.794H10.826v21.838m47.101-181.345H2.047v-9.56H59.65c8.005 0 13.564-1.141 16.693-3.419 3.131-2.274 4.707-6.165 4.707-11.648 0-5.557-1.724-9.657-5.179-12.297-3.436-2.639-8.842-3.941-16.22-3.941H2.046v-9.346h55.88c7.23 0 12.328.404 15.302 1.216 2.99.824 5.646 2.204 7.938 4.122 2.77 2.336 4.88 5.214 6.302 8.653 1.416 3.43 2.138 7.32 2.138 11.708 0 4.48-.77 8.5-2.31 12.065-1.537 3.547-3.722 6.382-6.59 8.444-1.911 1.442-4.4 2.468-7.418 3.09-3.013.61-8.133.913-15.362.913M10.826 240.604h-8.78V188.46h8.78v20.512h76.828v9.793H10.826v21.84m34.02-179.512c-15.93 0-27.4-2.16-34.375-6.48C3.495 50.307 0 43.307 0 33.653c0-9.733 3.452-16.76 10.354-21.026 6.92-4.267 18.407-6.414 34.492-6.414 16.093 0 27.573 2.134 34.5 6.4 6.902 4.24 10.36 11.267 10.36 21.04 0 9.614-3.531 16.6-10.57 20.947-7.035 4.333-18.461 6.493-34.29 6.493m0-44.933c-13.956 0-23.506 1.293-28.625 3.84-5.102 2.587-7.67 7.133-7.67 13.653 0 6.454 2.625 10.96 7.878 13.574 5.229 2.6 14.705 3.92 28.417 3.92 13.756 0 23.264-1.32 28.524-3.92 5.252-2.614 7.888-7.12 7.888-13.574 0-6.52-2.555-11.066-7.698-13.653-5.124-2.547-14.711-3.84-28.714-3.84M1165.77 1423.2H973.53v-53.267h65.271v-49.602h-65.27v-53.248h192.24v53.248h-74.486v49.602h74.486v53.267m-68.911-187.012H973.53v-53.247h118.52c10.94 0 18.755-1.968 23.374-5.926 4.675-3.914 6.985-10.535 6.985-19.748 0-8.996-2.265-15.435-6.848-19.292-4.54-3.866-12.433-5.788-23.512-5.788H973.531v-53.26h123.329c24.093 0 42.487 6.677 55.204 20.1 12.672 13.4 19.065 32.806 19.065 58.24 0 25.594-6.393 45.148-19.133 58.673-12.741 13.49-31.144 20.248-55.136 20.248m68.91-188.316H973.53v-64.848l95.927-22.944c1.286-.307 4.288-.91 8.954-1.799 4.628-.886 11.044-2.182 19.233-3.844a651.218 651.218 0 01-16.915-2.913c-4.821-.896-8.417-1.693-10.874-2.34l-96.324-23.527v-64.734h192.24v48.174l-94.642-.457c-5.72 0-11.306 0-16.733-.033-5.436-.046-11.101-.126-16.915-.194 9.931 1.798 20.736 3.982 32.511 6.518l1.696.353 94.083 20.476v37.163l-91.991 20.702a305.56 305.56 0 01-14.344 2.935c-5.46.944-12.75 2.263-21.955 3.833 8.271-.24 15.346-.432 21.284-.533a741.204 741.204 0 0114.207-.161h92.799v48.173m0-218.276H973.53v-68.001c0-14.64.454-25.276 1.309-31.952.887-6.69 2.308-12.419 4.31-17.226 3.653-8.405 9.362-14.828 17.109-19.326 7.746-4.464 17.153-6.687 28.2-6.687 8.689 0 16.286 1.653 22.748 4.992 6.518 3.344 11.82 8.384 16.017 15.061 3.65-8.793 9.135-15.288 16.437-19.486 7.303-4.174 16.79-6.29 28.394-6.29 11.43 0 21.326 2.026 29.734 6.143 8.371 4.072 14.832 10.032 19.382 17.83 3.128 5.266 5.346 11.257 6.62 18.027 1.309 6.723 1.98 17.903 1.98 33.5v73.415m-62.78-98.917c-6.324 0-10.874 1.761-13.536 5.288-2.708 3.502-4.048 9.418-4.048 17.756v24.206h35.445v-24.673c0-8.144-1.367-13.979-4.177-17.403-2.754-3.458-7.348-5.174-13.684-5.174m-69.263 5.253c-6.37 0-10.704 1.617-13.047 4.847-2.366 3.22-3.528 10.681-3.528 22.398v14.752h33.15v-21.942c0-7.37-1.252-12.558-3.788-15.563-2.55-2.99-6.768-4.492-12.787-4.492m36.081-73.964c-31.314 0-56-7.713-74.13-23.121-18.088-15.415-27.119-36.47-27.119-63.087 0-26.561 9.03-47.537 27.119-62.904 18.13-15.404 42.816-23.096 74.13-23.096 31.262 0 55.955 7.692 74.087 23.096 18.133 15.367 27.233 36.343 27.233 62.904 0 26.617-9.1 47.672-27.233 63.087-18.132 15.408-42.825 23.121-74.087 23.121m0-118.41c-18.36 0-31.77 2.57-40.232 7.755-8.52 5.183-12.729 13.334-12.729 24.447 0 11.17 4.265 19.401 12.784 24.66 8.544 5.257 21.908 7.872 40.177 7.872 18.214 0 31.534-2.615 40.099-7.872 8.51-5.259 12.775-13.49 12.775-24.66 0-11.113-4.232-19.264-12.73-24.447-8.462-5.185-21.828-7.756-40.144-7.756m95.962-78.116H973.53V412.19h141.189v-72.386h51.05V465.44m0-147.35H973.53v-64.392c0-16.372.865-28.508 2.55-36.5 1.693-7.99 4.515-14.95 8.404-20.902 7.85-11.489 18.861-20.094 33.023-25.858 14.22-5.806 31.634-8.683 52.348-8.683 21.738 0 40.053 3.572 54.874 10.761 14.834 7.143 25.832 17.708 33.068 31.658 2.879 5.418 4.936 12.182 6.152 20.324 1.196 8.141 1.822 21.17 1.822 39.116v54.476m-95.916-102.85c-17.334 0-29.587 2.614-36.786 7.874-7.234 5.26-10.829 14.178-10.829 26.786v14.94h94.844v-14.293c0-13.255-3.435-22.473-10.305-27.588-6.906-5.147-19.203-7.72-36.924-7.72m-45.671-65.093h-50.653V2.453h50.653v46.72h141.587v53.26h-141.587v47.714M1260.776 1410.346c-15.857 0-27.333-2.106-34.445-6.333-7.098-4.186-10.636-10.973-10.636-20.373 0-7.813 2.288-13.84 6.826-18.08 4.516-4.24 10.99-6.374 19.372-6.374h1.046v9.228c-5.858 0-10.442 1.346-13.775 4.12-3.367 2.746-5.027 6.48-5.027 11.226 0 5.826 2.844 10.014 8.486 12.573 5.653 2.574 15.014 3.827 28.153 3.827 12.832 0 21.965-1.293 27.38-3.933 5.437-2.64 8.144-6.96 8.144-13.013 0-4.854-1.99-8.587-5.97-11.2-3.994-2.628-9.682-3.92-17.063-3.92h-1.332v-9.454c10.852.12 19.145 2.373 24.877 6.746 5.732 4.374 8.576 10.72 8.576 19.014 0 8.814-3.628 15.347-10.919 19.574-7.257 4.24-18.508 6.372-33.693 6.372m-.227-194.883c-15.925 0-27.393-2.162-34.365-6.474-6.985-4.298-10.49-11.306-10.49-20.952 0-9.748 3.46-16.768 10.377-21.033 6.914-4.265 18.382-6.415 34.478-6.415 16.094 0 27.572 2.127 34.488 6.403 6.928 4.243 10.351 11.263 10.351 21.045 0 9.6-3.503 16.598-10.567 20.93-7.029 4.334-18.44 6.496-34.272 6.496m0-44.932c-13.957 0-23.514 1.285-28.632 3.857-5.096 2.57-7.644 7.12-7.644 13.65 0 6.438 2.606 10.954 7.86 13.57 5.232 2.603 14.698 3.913 28.416 3.913 13.763 0 23.274-1.31 28.528-3.913 5.244-2.616 7.884-7.132 7.884-13.57 0-6.53-2.549-11.08-7.704-13.65-5.128-2.572-14.706-3.857-28.708-3.857m42.815-154.054h-85.619v-9.566h76.394v-34.182h9.225v43.748m-42.815-176.816c-15.925 0-27.393-2.16-34.365-6.472-6.985-4.31-10.49-11.294-10.49-20.964 0-9.725 3.46-16.744 10.377-21.021 6.914-4.267 18.382-6.415 34.478-6.415 16.094 0 27.572 2.126 34.488 6.394 6.928 4.253 10.351 11.284 10.351 21.042 0 9.624-3.503 16.608-10.567 20.952-7.029 4.324-18.44 6.484-34.272 6.484m0-44.93c-13.957 0-23.514 1.297-28.632 3.857-5.096 2.581-7.644 7.13-7.644 13.637 0 6.462 2.606 10.978 7.86 13.582 5.232 2.606 14.698 3.914 28.416 3.914 13.763 0 23.274-1.308 28.528-3.914 5.244-2.604 7.884-7.12 7.884-13.582 0-6.506-2.549-11.056-7.704-13.637-5.128-2.56-14.706-3.857-28.708-3.857m42.815-153.952h-85.619v-16.07l72.971-18.009-72.97-18.837v-15.844h85.618v9.337h-80.73l80.73 20.85v9.275l-80.73 19.96h80.73v9.338m0-214.65h-85.619v-22.337c0-8.003 1.682-13.815 5.094-17.416 3.378-3.623 8.828-5.43 16.324-5.43 5.096 0 9.213.975 12.297 2.92 3.093 1.943 5.208 4.918 6.37 8.926.989-4.976 3.22-8.633 6.631-11.003 3.436-2.374 8.212-3.576 14.334-3.576 7.814 0 13.864 2.151 18.142 6.454 4.278 4.305 6.427 10.38 6.427 18.24v23.222m-24.139-37.797c-6.266 0-10.69 1.368-13.285 4.077-2.583 2.73-3.903 7.396-3.903 14.011v10.49h32.886V404.74c0-5.826-1.228-10.018-3.672-12.577-2.448-2.567-6.44-3.832-12.026-3.832m-39.881 2.295c-5.13 0-8.747 1.232-10.85 3.7-2.094 2.47-3.14 6.83-3.14 13.13v9.452h28.813v-10c0-6.004-1.127-10.21-3.356-12.633-2.219-2.435-6.016-3.65-11.467-3.65m64.02-156.653h-85.619v-9.786h85.619v9.786m0-149.746l-85.619-23.334V48.72l85.619-23.68v9.68l-24.684 6.48v27.133l24.684 6.214v9.68m-33.352-40.84l-44.873 11.373 44.873 11.413V43.387M815.21 1326.69a56295.36 56295.36 0 00-4.866-116.403l98.781-29.951.33 111.75c-.342.055-.683.045-1.024.16l-93.22 34.445M755.776 208.284l-27.89-204.71 74.633-2.427-46.743 207.137M909.855 1422.053l-90.912-2.16c-1.047-26.893-2.162-53.773-3.23-80.68l93.799-34.649.343 117.49M582.743 634.588c-.78-12.508-1.566-25.01-2.342-37.501L727.293 500.8a5.939 5.939 0 001.707-8.248 5.893 5.893 0 00-4.967-2.693 5.991 5.991 0 00-3.269.973l-141.221 92.571c-.442-7.115-.891-14.219-1.332-21.321 113.661-67.479 156.932-159.506 168.761-262.495 6.848 75.168 12.764 151.013 17.973 227.41-37.537 43.755-85.36 84.015-182.202 107.59M525.46 756.316c-43.865 0-86.439-14.49-127.285-39.787l83.301-54.6c17.855 9.243 36.767 17.091 56.785 23.448-12.878 28.418-6.566 44.344-2.837 70.69-3.328.166-6.65.25-9.964.25M606.12 361.945c1.385-6.956 2.6-13.756 3.728-20.49l73.924-40.312c-23.319 26.952-48.79 48.274-77.652 60.802M516.937 502.565c-46.961 0-87.122-16.822-123.434-43.146l96.296-52.508c12.321 15.326 26.618 30.305 43.154 44.905l-8.293 50.6c-2.597.1-5.165.15-7.723.15M601.605 1161.739c-.436-21.887-.865-43.774-1.289-65.67L761.84 989.541a5.964 5.964 0 001.684-8.27c-1.132-1.73-3.033-2.668-4.972-2.668a5.931 5.931 0 00-3.264.974l-77.999 51.438c40.802-32.034 77.17-67.408 108.928-106.256 1.956 48.289 3.719 96.748 5.368 145.272-55.897 43.385-117.742 76.544-189.98 91.708M594.81 895.89c1.087-10.694 1.171-21.397.535-32.111l139.434-98.816c2.696-1.9 3.333-5.62 1.433-8.292a5.982 5.982 0 00-4.885-2.523 5.98 5.98 0 00-3.442 1.09l-133.765 94.8c-1.352-11.65-3.447-23.31-6.1-34.957 36.713-25.925 73.412-51.858 110.119-77.782 30.224-28.498 54.532-58.882 73.688-90.91-.022.607-.022 1.211.17 1.82.171.586.444 1.107.775 1.586a13891.3 13891.3 0 015.664 104.041c-1.535 1.536-2.23 3.812-1.513 6.019.376 1.149 1.081 2.058 1.956 2.764 1.025 20.442 1.969 40.917 2.913 61.414-53.883 37.242-115.89 61.71-186.981 71.858M522.93 1019.703c-37.095 0-72.434-10.427-106.358-29.218l82.71-58.617c14.926 6.019 30.869 11.195 48.003 15.38-2.514 23.91-5.018 47.833-7.54 71.744-5.646.477-11.249.712-16.816.71M387.232 709.45c-14.515-9.738-28.8-20.823-42.841-33.086l-2.287-150.284c31.935 55.95 74.612 99.287 127.479 129.39l-82.351 53.98M503.536 193.528c-1.385-4.053-2.779-8.103-4.168-12.155l7.441-4.442c-.937 6.005-2.021 11.577-3.273 16.597M394.723 1420.093l-38.986-.2-.582-38.68c12.81 13.454 25.981 26.44 39.568 38.88"/><path d="M383.321 451.743c-14.873-11.719-29.124-24.984-42.961-39.268L334.096 2.16l86.519.987L371.9 38.8c-2.656 1.933-3.25 5.667-1.294 8.32a5.925 5.925 0 008.324 1.293l54.453-39.84c1.723-1.266 2.459-3.28 2.317-5.266L590.925 5.08 540.04 37.813c-9.31-10.56-19.246-20.546-29.712-30.08.594 16.587 1.056 32.747 1.332 48.334l-45.276 29.12c-1.946-5.667-3.888-11.347-5.836-17.027a687.562 687.562 0 00-9.318 26.779l-81.7 52.553a5.958 5.958 0 00-1.785 8.241 5.944 5.944 0 005.015 2.74c1.096 0 2.224-.31 3.222-.953l69.847-44.936c-9.655 33.133-15.973 65.692-17.861 97.5l-49.636 29.604c-2.82 1.69-3.751 5.35-2.059 8.175a5.956 5.956 0 008.17 2.07l43.003-25.66c-.422 24.52 1.868 48.572 7.386 72.08l-57.683 32.23a5.968 5.968 0 00-2.29 8.117 5.936 5.936 0 005.2 3.057c.989 0 1.98-.242 2.909-.76l54.96-30.717c8.728 30.739 23.189 60.501 44.456 89.105l-97.867 53.36c-.479.256-.821.64-1.195.998M801.619 1422.053l-199.426-.96-1.35-43.36c2.502-2.453 5.016-4.893 7.526-7.347l165.403-107.911a5.953 5.953 0 001.73-8.256 5.934 5.934 0 00-4.98-2.703 5.99 5.99 0 00-3.267.972l-115.643 75.452c48.54-48.175 96.636-98.248 143.33-154.417 2.48 82.64 4.651 165.53 6.677 248.53"/><path d="M612.17 326.612c6.283-43.856 7-82.71 3.14-117.459l83.74-46.793a5.964 5.964 0 002.286-8.11 5.925 5.925 0 00-5.196-3.057c-.985 0-1.987.244-2.915.76l-79.572 44.47c-3.868-26.198-10.4-50.008-19.216-71.76l96.127-57.356a5.94 5.94 0 002.059-8.16 5.935 5.935 0 00-5.118-2.92 5.93 5.93 0 00-3.049.84l-94.781 56.556c-11.23-24.663-25.415-46.663-41.838-66.65l55.244-35.533c2.126-1.373 3.059-3.867 2.594-6.2l109.368 1.253c9.192 70.934 17.256 142.7 24.501 215.094-13.104 21.961-26.675 42.678-41.017 61.381a6.196 6.196 0 00-3.206-.919c-.913 0-1.837.218-2.698.691l-80.454 43.872M542.013 1318.067c-65.982-2.754-128.528-33.682-189.06-81.14l-2.705-176.484c33.307 50.414 67.81 90.272 103.716 117.846l-38.007 25.071a5.967 5.967 0 00-1.693 8.27 5.965 5.965 0 004.977 2.673 5.892 5.892 0 003.274-.991l41.716-27.505c24.022 16.768 48.66 28.121 74.014 33.318 1.254 32.976 2.506 65.964 3.768 98.942M495.407 169.848c-8.347-24.347-16.696-48.699-25.035-73.045l41.488-26.696c.361 34.996-.403 66.442-3.113 91.786l-13.34 7.955M405.524 984.047c-19.481-11.934-38.49-26.562-57.096-43.6l-2.176-142.314c33.119 54.007 76.719 99.339 140.21 128.208L406.5 983.013c-.406.284-.67.671-.975 1.034"/><path d="M595.928 1427.067a5.981 5.981 0 01-5.493-3.627c-2.887-6.773-5.126-13.866-7.302-20.707-9.937-31.413-18.592-58.853-84.106-58.853-4.595 0-9.464.133-14.64.4-.055.013-.111.013-.166.013-.414 0-.821-.04-1.233-.107-120.773-22.331-235.281-161.631-346.037-296.36l-12.636-15.354c-2.09-2.56-1.729-6.303.823-8.396a5.963 5.963 0 018.386.807l12.645 15.38c109.162 132.805 222.046 270.112 338.303 292.068 4.717-.24 9.215-.355 13.504-.355 75.205 0 86.53 35.571 96.521 67.157 2.191 6.88 4.25 13.387 6.918 19.627a5.97 5.97 0 01-3.152 7.826c-.768.334-1.551.48-2.335.48M547.96 1282.94c-.504 0-1.01-.079-1.528-.216a5.937 5.937 0 01-4.239-7.268c.887-3.39 1.715-6.803 2.53-10.203 8.668-35.968 17.642-73.176 106.912-99.373.217-.046.438-.103.649-.136 80.81-14.162 139.723-73.975 196.679-131.806 14.013-14.217 28.506-28.938 43.145-42.804a5.962 5.962 0 014.099-1.626c1.582 0 3.162.624 4.341 1.865 2.241 2.379 2.139 6.153-.25 8.43-14.493 13.707-28.893 28.347-42.85 42.509-58.196 59.094-118.381 120.201-202.772 135.112-82.353 24.23-90.123 56.49-98.368 90.626-.833 3.482-1.667 6.963-2.577 10.443a5.986 5.986 0 01-5.771 4.447m26.537-203.488a5.927 5.927 0 01-4.953-2.652c-15.097-22.568-34.2-42.971-70.308-42.971-4.604 0-9.483.332-14.667 1.033-.412.04-.842.046-1.265.046h-.517c-98.15 0-156.56-77.182-203.627-149.598a5.95 5.95 0 011.74-8.244 5.953 5.953 0 018.245 1.75c57.811 88.909 110.362 144.17 193.424 144.17l.794-.001c5.638-.745 10.973-1.097 16.016-1.097 41.686 0 63.828 24.01 80.064 48.293 1.84 2.73 1.097 6.427-1.63 8.256a5.943 5.943 0 01-3.316 1.015m-9.642-94.915c-.472 0-.946-.047-1.418-.16a5.957 5.957 0 01-4.386-7.199c10.945-45.196 42.184-72.425 95.486-83.265 116.346-28.008 142.862-58.14 170.924-90.047 2.798-3.15 5.574-6.301 8.43-9.464a5.945 5.945 0 014.41-1.941c1.435 0 2.872.512 4.007 1.544a5.98 5.98 0 01.41 8.427c-2.822 3.096-5.54 6.21-8.305 9.317-28.052 31.896-57.08 64.861-177.28 93.81-48.53 9.862-76.74 34.194-86.492 74.418a5.955 5.955 0 01-5.786 4.56m-3.231-145.579a5.968 5.968 0 01-5.58-3.856c-19.995-53.168-71.316-58.753-108.775-62.837-4.328-.465-8.392-.908-12.136-1.399-53.928-9.678-88.96-48.344-136.297-106.206a5.964 5.964 0 014.612-9.736c1.727 0 3.437.745 4.616 2.185 45.663 55.81 79.29 93.056 128.895 101.984 3.384.433 7.373.876 11.596 1.319 38.257 4.165 96.072 10.454 118.648 70.493 1.162 3.072-.394 6.517-3.468 7.667a5.742 5.742 0 01-2.111.386m-11.256-124.662c-.575 0-1.157-.08-1.74-.263a5.948 5.948 0 01-3.959-7.439c14.822-48.51 48.824-60.092 81.702-71.296 15.254-5.193 29.646-10.096 42.08-18.58a6.477 6.477 0 011.75-.82c70.458-19.685 92.447-50.028 125.81-114.588a5.945 5.945 0 018.03-2.557c2.935 1.515 4.062 5.11 2.56 8.033-34.092 65.971-58.32 99.46-132.258 120.34-13.583 9.06-29.1 14.348-44.132 19.456-31.422 10.71-61.096 20.814-74.135 63.494a5.978 5.978 0 01-5.708 4.22m-4.021-151.207c-1.763 0-3.5-.773-4.684-2.27-11.904-15.12-32.396-22.943-58.338-32.84-44.313-16.914-105.005-40.075-169.164-116.613-2.108-2.524-1.784-6.285.742-8.4a5.94 5.94 0 013.829-1.394c1.704 0 3.397.726 4.576 2.13 62.152 74.162 121.177 96.691 164.267 113.134 27.664 10.557 49.51 18.897 63.456 36.606a5.943 5.943 0 01-.999 8.371 5.883 5.883 0 01-3.685 1.276m24.932-139.943a5.911 5.911 0 01-3.612-1.224 5.943 5.943 0 01-1.127-8.346c18.727-24.63 39.459-36.799 61.412-49.692 34.288-20.119 69.744-40.936 101.116-114.716a5.946 5.946 0 017.815-3.15 5.942 5.942 0 013.138 7.818c-32.885 77.406-71.741 100.214-106.024 120.332-20.917 12.273-40.669 23.877-57.968 46.626a5.958 5.958 0 01-4.75 2.352m-6.43-101.332a5.963 5.963 0 01-5.548-3.79c-14.578-37.144-32.778-62.608-50.384-87.239-21.441-29.985-41.684-58.312-49.665-102.072a5.964 5.964 0 015.864-7.033 5.949 5.949 0 015.856 4.89c7.516 41.142 26.115 67.16 47.643 97.28 17.19 24.052 36.67 51.295 51.788 89.818 1.193 3.072-.314 6.528-3.379 7.73a6.099 6.099 0 01-2.175.416"/><path d="M328.573 921.324c-44.116-44.953-86.065-102.775-126.75-168.101a2647.133 2647.133 0 0029.86 75.041l-97.903-51.517c-.839-.444-1.721-.599-2.601-.599-.181 0-.361.007-.541.019V658.07L285.1 735.944c.86.432 1.77.648 2.679.648a5.961 5.961 0 005.326-3.288 5.94 5.94 0 00-2.648-7.996l-157.425-79.387a6.07 6.07 0 00-2.394-.602V541.48l126.713 57.315c.801.35 1.634.521 2.456.521.824 0 1.613-.226 2.361-.55 18.91 55.706 37.896 111.37 63.212 161.757l3.193 160.8M317.993 388.255c-11.997-13.592-23.764-27.744-35.456-42.119 2.114 13.475 4.61 26.53 7.391 39.281l-156.662-64.286c-.705-.29-1.43-.398-2.144-.398a7.31 7.31 0 00-.484.016v-80.117l158.531 73.852c.811.373 1.667.557 2.515.557a5.974 5.974 0 005.404-3.446c1.387-2.98.103-6.535-2.885-7.926l-161.979-75.458c-.515-.234-1.06-.29-1.586-.379v-97.91l156.209 86.151a6.009 6.009 0 002.874.736 5.974 5.974 0 005.236-3.08 5.97 5.97 0 00-2.341-8.1l-158.084-87.177c-.856-.47-1.776-.664-2.688-.664-.405 0-.81.039-1.206.11V9.706l153.61 84.712c.92.505 1.907.741 2.875.741a5.946 5.946 0 005.229-3.08c1.592-2.88.54-6.507-2.344-8.107L141.401 2.027 310.288 0l7.705 388.255"/><path d="M323.325 656.967c-19.748-19.212-38.978-40.655-57.629-63.86-.096-2.168-1.31-4.22-3.43-5.188l-1.078-.483c-1.687-2.132-3.379-4.259-5.047-6.421.554 1.626 1.106 3.264 1.662 4.886l-124.99-56.52a5.939 5.939 0 00-2.175-.497V437.36l144.549 56.816a6.042 6.042 0 002.182.413 5.978 5.978 0 005.555-3.78c1.201-3.07-.312-6.53-3.372-7.726l-148.914-58.534v-91.613l161.375 66.23c.382.143.754.143 1.13.22 7.097 29.25 15.993 56.527 26.697 81.742l3.485 175.839M167.436 1422.053l-36.798-15.146V1286.74l153.586 85.953c.912.507 1.916.76 2.899.76a5.968 5.968 0 005.208-3.067c1.613-2.866.589-6.493-2.292-8.106l-158.08-88.475c-.414-.237-.876-.294-1.321-.42v-123.83l74.865 37.698c41.082 62.05 84.042 121.6 131.817 174.733l1.103 55.734-170.987 4.333M192.437 1167.324l-60.054-30.25c-.563-.282-1.16-.374-1.745-.475v-66.386c20.466 32.556 40.942 65.09 61.8 97.111M334.532 1221.947c-45.087-37.994-89.125-84.564-132.721-134.899l79.12 44.921a5.905 5.905 0 002.944.784c2.07 0 4.096-1.078 5.184-3.013a5.965 5.965 0 00-2.236-8.133l-107.759-61.199c-16.184-19.156-32.319-38.71-48.426-58.41v-72.506l136.103 73.096a6.024 6.024 0 002.818.716 5.948 5.948 0 005.254-3.15 5.943 5.943 0 00-2.434-8.066l-140.504-75.46c-.398-.216-.823-.263-1.237-.375V788.555l108.307 57c29.646 69.649 60.175 131.462 91.775 183.914l3.812 192.478M782.075 638.97c-.18-3.263-.408-6.517-.591-9.78 17.461-32.927 29.679-67.537 37.039-103.68l.18-.017 88.421-18.802.284 95.278a5.671 5.671 0 00-2.287.216l-123.046 36.786M774.683 515.32c-4.79-79.059-9.795-158.125-15.267-237.18L826.78 2.36l78.852.613.047 14.667a6.918 6.918 0 00-1.57-.187c-.676 0-1.356.107-2.014.387l-37.97 15.933c-3.037 1.28-4.47 4.76-3.185 7.8.944 2.294 3.173 3.654 5.481 3.654.787 0 1.559-.147 2.334-.454L905.7 29.24l.228 75.524-68.841 21.963a5.94 5.94 0 00-3.856 7.488c.796 2.533 3.15 4.156 5.665 4.156.601 0 1.217-.098 1.797-.284l65.28-20.824.251 84.145c-.17.043-.375 0-.545.056L806.544 232.1c-3.163.973-4.904 4.315-3.936 7.46.773 2.556 3.141 4.203 5.676 4.203a5.96 5.96 0 001.775-.274l96.198-29.725.252 81.484a6.924 6.924 0 00-1.794-.259c-.464 0-.936.06-1.412.196L794.384 327.05a5.984 5.984 0 00-4.05 7.395c.751 2.604 3.129 4.292 5.734 4.292a5.75 5.75 0 001.661-.244l108.802-31.825.216 74.186h-.036c-.119 0-.238-.008-.356-.014a5.22 5.22 0 00-.355-.015c-.13 0-.259.008-.39.035l-128.527 26.964c-3.208.677-5.278 3.833-4.596 7.052a5.948 5.948 0 005.813 4.745c.42 0 .807-.043 1.228-.13l127.265-26.698.307 102.016c-.29-.01-.581-.037-.875-.037-.212 0-.424.014-.638.06L820.9 512.84c3.515-20.404 5.596-41.256 6.233-62.569-18.86 21.217-34.832 43.413-52.45 65.048M903.381 712.617c1.455-4.5 2.946-8.946 4.31-13.513l.046 12.55a9.233 9.233 0 00-.385-.009c-.58 0-1.164.068-1.741.256l-2.23.716M791.87 818.619c-.99-18.794-1.955-37.584-2.969-56.375l92.902-30.1c-26.948 33.603-56.866 62.541-89.934 86.475M842.468 848.012c22.51-37.673 41.45-78.055 56.443-121.408l8.872-2.864.306 106.23-.489-.002c-.384 0-.77.017-1.159.128l-63.973 17.916M800.561 991.917c-1.206-25.762-2.526-51.55-3.8-77.316 13.014-16.573 25.162-33.784 36.503-51.629l74.872-20.967.33 112.284a5.906 5.906 0 00-2.39.307l-105.515 37.321M788.252 749.915c-1.775-32.907-3.616-65.81-5.493-98.715l124.694-37.267.238 83.254c-6.824 10.01-13.911 19.593-21.191 28.93 2.299-3.346 4.539-6.789 6.78-10.218l-105.028 34.016M809.832 1197.99c-.535-12.546-1.092-25.105-1.64-37.64 13.719-16.88 27.325-34.307 40.736-52.405l59.697-18.882.25-.126.216 79.274c-.511.012-1.024-.012-1.547.149l-97.712 29.63M803.803 1062.4c-.888-19.35-1.74-38.7-2.663-58.048l101.205-35.797c-31.338 33.932-63.814 65.826-98.542 93.845M860.815 1091.688c15.993-22.19 31.77-45.27 47.274-69.648v-55.51l.399-.137.33 111.475a6.416 6.416 0 00-2.203-.412c-.524 0-1.055.075-1.586.243l-44.214 13.989"/></g></svg>