<?xml version="1.0" encoding="UTF-8" standalone="no"?>
<svg
   xmlns:dc="http://purl.org/dc/elements/1.1/"
   xmlns:cc="http://creativecommons.org/ns#"
   xmlns:rdf="http://www.w3.org/1999/02/22-rdf-syntax-ns#"
   xmlns:svg="http://www.w3.org/2000/svg"
   xmlns="http://www.w3.org/2000/svg"
   xmlns:sodipodi="http://sodipodi.sourceforge.net/DTD/sodipodi-0.dtd"
   xmlns:inkscape="http://www.inkscape.org/namespaces/inkscape"
   version="1.1"
   id="svg10"
   xml:space="preserve"
   width="1305.3867"
   height="1427.4667"
   viewBox="0 0 1305.3867 1427.4667"
   sodipodi:docname="humboldt.svg"
   inkscape:version="1.0.2-2 (e86c870879, 2021-01-15)"><metadata
     id="metadata16"><rdf:RDF><cc:Work
         rdf:about=""><dc:format>image/svg+xml</dc:format><dc:type
           rdf:resource="http://purl.org/dc/dcmitype/StillImage" /><dc:title></dc:title></cc:Work></rdf:RDF></metadata><defs
     id="defs14" /><sodipodi:namedview
     pagecolor="#ffffff"
     bordercolor="#666666"
     borderopacity="1"
     objecttolerance="10"
     gridtolerance="10"
     guidetolerance="10"
     inkscape:pageopacity="0"
     inkscape:pageshadow="2"
     inkscape:window-width="1818"
     inkscape:window-height="1368"
     id="namedview12"
     showgrid="false"
     inkscape:zoom="0.70614608"
     inkscape:cx="652.69336"
     inkscape:cy="713.73334"
     inkscape:window-x="0"
     inkscape:window-y="0"
     inkscape:window-maximized="0"
     inkscape:current-layer="g18" /><g
     id="g18"
     inkscape:groupmode="layer"
     inkscape:label="ink_ext_XXXXXX"
     transform="matrix(1.3333333,0,0,-1.3333333,0,1427.4667)"><g
       id="g20"
       transform="scale(0.1)"><path
         d="M 657.402,0 H 15.3516 V 73.5 H 657.402 V 0 m 0,1087.37 H 15.3516 v 95.97 L 566.055,1406.1 15.3516,1399.35 v 69.19 H 657.402 v -91.7 l -567.1012,-226.09 567.1012,5.8 v -69.18 M 474.824,2467.56 c -2.109,0 -5.683,0.19 -10.527,0.44 -4.824,0.34 -8.359,0.42 -10.676,0.42 v 68.24 h 22.914 c 43.66,0 76.551,10.06 98.875,30.2 22.278,20.22 33.34,50.1 33.34,89.5 0,35.58 -10.703,63.49 -32.187,83.86 -21.278,20.31 -50.801,30.39 -88.36,30.39 -30.066,0 -53.191,-6.07 -69.465,-18.44 -16.23,-12.46 -32.547,-40.27 -48.906,-83.69 -4.012,-10.41 -9.383,-24.83 -16.238,-43.34 -18.887,-52.04 -33.156,-83.45 -42.52,-94.36 -15.957,-17.66 -34.726,-30.96 -56.57,-39.76 -21.875,-8.69 -47.188,-13.13 -76.113,-13.13 -55.918,0 -99.5941,15.43 -131.0472,46.33 C 15.7617,2555.1 0,2598.1 0,2653.04 c 0,52.12 14.4844,93.15 43.6719,122.76 29.1406,29.52 69.5621,44.46 120.9181,44.46 1.59,0 4.414,-0.26 8.125,-0.51 3.691,-0.35 6.406,-0.52 8.152,-0.52 v -65.87 h -6.726 c -35.977,0 -63.856,-8.78 -83.5277,-26.35 -19.4805,-17.67 -29.3438,-42.58 -29.3438,-74.91 0,-33.36 9.4336,-59.47 28.2032,-78.74 18.6213,-19.12 44.1323,-28.77 75.9883,-28.77 30.348,0 53.836,6.59 70.469,19.63 16.617,12.97 33.172,41.56 49.246,85.41 1.836,5.29 4.785,13.13 8.679,23.37 24.747,67.05 43.235,106.98 55.461,120.11 14.793,15.79 32.786,27.66 53.789,35.17 21.204,7.66 46.387,11.59 75.872,11.59 60.867,0 108.296,-16.8 142.312,-50.51 33.856,-33.69 50.762,-80.53 50.762,-140.5 0,-59.81 -16.633,-104.95 -50.059,-135.49 -33.328,-30.62 -82.39,-45.81 -147.168,-45.81 M 81.1914,3794.28 H 15.3516 v 391.07 H 81.1914 V 4031.53 H 657.402 v -73.44 H 81.1914 V 3794.28 M 657.402,5153.5 H 15.3516 v 73.35 H 657.402 V 5153.5 M 81.1914,6195.85 H 15.3516 v 391.07 H 81.1914 V 6433.1 H 657.402 v -73.46 H 81.1914 V 6195.85 M 434.453,7555.94 H 15.3516 v 71.7 H 447.383 c 60.039,0 101.73,8.56 125.195,25.64 23.488,17.06 35.305,46.24 35.305,87.36 0,41.68 -12.934,72.43 -38.84,92.23 -25.77,19.79 -66.32,29.56 -121.66,29.56 H 15.3516 v 70.09 H 434.453 c 54.219,0 92.461,-3.03 114.766,-9.12 22.422,-6.18 42.344,-16.53 59.531,-30.91 20.781,-17.52 36.602,-39.11 47.266,-64.9 10.625,-25.73 16.035,-54.9 16.035,-87.81 0,-33.6 -5.774,-63.75 -17.317,-90.49 -11.531,-26.6 -27.918,-47.86 -49.429,-63.33 -14.336,-10.81 -33,-18.51 -55.637,-23.17 -22.598,-4.58 -60.996,-6.85 -115.215,-6.85 M 81.1914,8901.47 H 15.3516 v 391.08 H 81.1914 V 9138.71 H 657.402 v -73.45 H 81.1914 V 8901.47 M 336.348,10247.8 c -119.485,0 -205.508,16.2 -257.8128,48.6 C 26.2109,10328.7 0,10381.2 0,10453.6 c 0,73 25.8906,125.7 77.6563,157.7 51.8947,32 138.0547,48.1 258.6917,48.1 120.695,0 206.797,-16 258.75,-48 51.765,-31.8 77.703,-84.5 77.703,-157.8 0,-72.1 -26.492,-124.5 -79.278,-157.1 -52.769,-32.5 -138.464,-48.7 -257.175,-48.7 m 0,337 c -104.676,0 -176.297,-9.7 -214.688,-28.8 -38.2694,-19.4 -57.5311,-53.5 -57.5311,-102.4 0,-48.4 19.6875,-82.2 59.0861,-101.8 39.219,-19.5 110.293,-29.4 213.133,-29.4 103.164,0 174.48,9.9 213.925,29.4 39.395,19.6 59.161,53.4 59.161,101.8 0,48.9 -19.161,83 -57.735,102.4 -38.429,19.1 -110.332,28.8 -215.351,28.8"
         style="fill:#7fcc28;fill-opacity:1;fill-rule:nonzero;stroke:none"
         id="path22" /><path
         d="m 8743.28,32 h -1441.8 v 399.5 h 489.53 v 372.02 h -489.53 v 399.36 h 1441.8 V 803.52 H 8184.64 V 431.5 h 558.64 V 32 m -516.83,1402.59 h -924.97 v 399.35 h 888.89 c 82.06,0 140.67,14.76 175.31,44.45 35.06,29.35 52.39,79.01 52.39,148.11 0,67.47 -16.99,115.76 -51.36,144.69 -34.05,28.99 -93.25,43.41 -176.34,43.41 h -888.89 v 399.45 h 924.97 c 180.7,0 318.65,-50.08 414.03,-150.75 95.04,-100.5 142.99,-246.05 142.99,-436.8 0,-191.96 -47.95,-338.61 -143.5,-440.05 -95.56,-101.18 -233.58,-151.86 -413.52,-151.86 m 516.83,1412.37 h -1441.8 v 486.36 l 719.45,172.08 c 9.64,2.3 32.16,6.83 67.15,13.49 34.71,6.65 82.83,16.37 144.25,28.83 -48.46,7.76 -90.43,15.02 -126.86,21.85 -36.16,6.72 -63.13,12.7 -81.56,17.55 l -722.43,176.45 v 485.51 h 1441.8 v -361.31 l -709.81,3.43 c -42.9,0 -84.8,0 -125.5,0.25 -40.77,0.34 -83.26,0.94 -126.86,1.45 74.48,-13.48 155.52,-29.86 243.83,-48.88 l 12.72,-2.65 705.62,-153.57 v -278.72 l -689.93,-155.27 c -31.49,-7.24 -67.32,-14.76 -107.58,-22.01 -40.95,-7.08 -95.63,-16.97 -164.66,-28.75 62.03,1.8 115.09,3.24 159.63,4 44.35,0.87 79.77,1.21 106.55,1.21 h 695.99 v -361.3 m 0,1637.07 h -1441.8 v 510.01 c 0,109.8 3.41,189.57 9.82,239.64 6.65,50.17 17.31,93.14 32.33,129.19 27.39,63.04 70.21,111.21 128.31,144.95 58.1,33.48 128.65,50.15 211.5,50.15 65.17,0 122.15,-12.4 170.61,-37.44 48.89,-25.08 88.65,-62.88 120.13,-112.96 27.38,65.95 68.51,114.66 123.28,146.15 54.77,31.3 125.92,47.17 212.95,47.17 85.73,0 159.95,-15.19 223.01,-46.07 62.78,-30.54 111.24,-75.24 145.36,-133.72 23.46,-39.5 40.1,-84.43 49.65,-135.21 9.82,-50.42 14.85,-134.27 14.85,-251.24 v -550.62 m -470.85,741.88 c -47.43,0 -81.55,-13.21 -101.52,-39.66 -20.31,-26.27 -30.36,-70.64 -30.36,-133.17 v -181.55 h 265.84 v 185.05 c 0,61.08 -10.25,104.84 -31.33,130.52 -20.65,25.94 -55.11,38.81 -102.63,38.81 m -519.47,-39.4 c -47.77,0 -80.28,-12.13 -97.85,-36.35 -17.75,-24.15 -26.46,-80.11 -26.46,-167.99 v -110.64 h 248.62 v 164.57 c 0,55.28 -9.39,94.18 -28.41,116.72 -19.12,22.42 -50.76,33.69 -95.9,33.69 m 270.61,554.73 c -234.86,0 -420,57.85 -555.98,173.41 -135.66,115.61 -203.39,273.52 -203.39,473.15 0,199.21 67.73,356.53 203.39,471.78 135.98,115.53 321.12,173.22 555.98,173.22 234.46,0 419.66,-57.69 555.65,-173.22 136,-115.25 204.25,-272.57 204.25,-471.78 0,-199.63 -68.25,-357.54 -204.25,-473.15 -135.99,-115.56 -321.19,-173.41 -555.65,-173.41 m 0,888.08 c -137.7,0 -238.28,-19.28 -301.74,-58.17 -63.9,-38.87 -95.47,-100 -95.47,-183.35 0,-83.77 31.99,-145.51 95.88,-184.95 64.08,-39.43 164.31,-59.04 301.33,-59.04 136.6,0 236.5,19.61 300.74,59.04 63.82,39.44 95.81,101.18 95.81,184.95 0,83.35 -31.74,144.48 -95.47,183.35 -63.47,38.89 -163.71,58.17 -301.08,58.17 m 719.71,585.87 h -1441.8 v 399.39 H 8360.4 v 542.9 h 382.88 v -942.29 m 0,1105.13 h -1441.8 v 482.94 c 0,122.79 6.48,213.81 19.12,273.75 12.7,59.93 33.86,112.13 63.03,156.76 58.87,86.17 141.46,150.71 247.67,193.94 106.65,43.54 237.26,65.12 392.61,65.12 163.04,0 300.4,-26.79 411.56,-80.71 111.25,-53.57 193.74,-132.81 248.01,-237.43 21.59,-40.64 37.02,-91.37 46.14,-152.43 8.97,-61.06 13.66,-158.78 13.66,-293.37 v -408.57 m -719.37,771.38 c -130,0 -221.9,-19.61 -275.89,-59.06 -54.26,-39.45 -81.22,-106.34 -81.22,-200.9 V 8719.7 h 711.33 v 107.19 c 0,99.41 -25.76,168.55 -77.29,206.91 -51.79,38.6 -144.02,57.9 -276.93,57.9 m -342.53,488.2 h -379.9 v 1107.7 h 379.9 v -350.4 h 1061.9 V 9937.76 H 7681.38 V 9579.9"
         style="fill:#7fcc28;fill-opacity:1;fill-rule:nonzero;stroke:none"
         id="path24" /><path
         d="m 9455.82,128.402 c -118.93,0 -205,15.797 -258.34,47.5 -53.23,31.399 -79.77,82.297 -79.77,152.797 0,58.602 17.16,103.801 51.2,135.602 33.87,31.801 82.42,47.801 145.29,47.801 h 7.84 v -69.204 c -43.93,0 -78.31,-10.097 -103.31,-30.898 -25.25,-20.598 -37.7,-48.598 -37.7,-84.199 0,-43.699 21.33,-75.102 63.64,-94.301 42.4,-19.301 112.61,-28.699 211.15,-28.699 96.24,0 164.74,9.699 205.35,29.5 40.78,19.801 61.08,52.199 61.08,97.597 0,36.403 -14.93,64.403 -44.78,84.004 -29.95,19.7 -72.61,29.399 -127.97,29.399 h -9.99 v 70.898 c 81.39,-0.898 143.59,-17.797 186.58,-50.597 42.99,-32.801 64.32,-80.403 64.32,-142.602 0,-66.102 -27.21,-115.102 -81.89,-146.801 -54.43,-31.801 -138.81,-47.797 -252.7,-47.797 m -1.7,1461.628 c -119.44,0 -205.45,16.21 -257.74,48.55 -52.39,32.24 -78.67,84.8 -78.67,157.14 0,73.11 25.94,125.76 77.82,157.75 51.86,31.99 137.87,48.11 258.59,48.11 120.7,0 206.79,-15.95 258.66,-48.02 51.96,-31.82 77.63,-84.47 77.63,-157.84 0,-72 -26.27,-124.48 -79.25,-156.97 -52.72,-32.51 -138.3,-48.72 -257.04,-48.72 m 0,336.99 c -104.68,0 -176.36,-9.64 -214.74,-28.93 -38.22,-19.27 -57.33,-53.4 -57.33,-102.37 0,-48.29 19.54,-82.16 58.95,-101.78 39.24,-19.52 110.23,-29.35 213.12,-29.35 103.22,0 174.55,9.83 213.96,29.35 39.33,19.62 59.13,53.49 59.13,101.78 0,48.97 -19.12,83.1 -57.78,102.37 -38.46,19.29 -110.3,28.93 -215.31,28.93 m 321.11,1155.4 h -642.14 v 71.75 h 572.95 v 256.36 h 69.19 v -328.11 m -321.11,1326.12 c -119.44,0 -205.45,16.2 -257.74,48.54 -52.39,32.33 -78.67,84.71 -78.67,157.23 0,72.94 25.94,125.58 77.82,157.66 51.86,32 137.87,48.11 258.59,48.11 120.7,0 206.79,-15.94 258.66,-47.95 51.96,-31.9 77.63,-84.63 77.63,-157.82 0,-72.18 -26.27,-124.56 -79.25,-157.14 -52.72,-32.43 -138.3,-48.63 -257.04,-48.63 m 0,336.98 c -104.68,0 -176.36,-9.73 -214.74,-28.93 -38.22,-19.36 -57.33,-53.48 -57.33,-102.28 0,-48.46 19.54,-82.33 58.95,-101.86 39.24,-19.55 110.23,-29.36 213.12,-29.36 103.22,0 174.55,9.81 213.96,29.36 39.33,19.53 59.13,53.4 59.13,101.86 0,48.8 -19.12,82.92 -57.78,102.28 -38.46,19.2 -110.3,28.93 -215.31,28.93 m 321.11,1154.64 h -642.14 v 120.53 l 547.28,135.06 -547.28,141.28 v 118.83 h 642.14 v -70.03 h -605.47 l 605.47,-156.38 v -69.56 l -605.47,-149.7 h 605.47 v -70.03 m 0,1609.87 h -642.14 v 167.53 c 0,60.02 12.61,103.61 38.2,130.62 25.34,27.17 66.21,40.73 122.43,40.73 38.22,0 69.1,-7.32 92.23,-21.91 23.2,-14.57 39.06,-36.88 47.77,-66.94 7.42,37.32 24.15,64.75 49.74,82.52 25.77,17.81 61.59,26.82 107.5,26.82 58.61,0 103.98,-16.13 136.07,-48.4 32.08,-32.29 48.2,-77.85 48.2,-136.8 v -174.17 m -181.04,283.48 c -47,0 -80.18,-10.26 -99.64,-30.58 -19.37,-20.47 -29.27,-55.47 -29.27,-105.08 v -78.67 h 246.64 v 91.26 c 0,43.7 -9.21,75.14 -27.54,94.33 -18.36,19.25 -48.3,28.74 -90.19,28.74 m -299.11,-17.21 c -38.47,0 -65.6,-9.24 -81.38,-27.75 -15.7,-18.52 -23.55,-51.23 -23.55,-98.48 v -70.89 h 216.1 v 75.01 c 0,45.02 -8.45,76.57 -25.17,94.74 -16.64,18.26 -45.12,27.37 -86,27.37 m 480.15,1174.9 h -642.14 v 73.4 h 642.14 v -73.4 m 0,1123.1 -642.14,175 v 91.3 l 642.14,177.6 v -72.6 L 9590.1,10397 v -203.5 l 185.13,-46.6 v -72.6 m -250.14,306.3 -336.55,-85.3 336.55,-85.6 v 170.9"
         style="fill:#7fcc28;fill-opacity:1;fill-rule:nonzero;stroke:none"
         id="path26" /><path
         d="m 6114.08,755.82 c -11.84,290.93 -24.05,581.94 -36.5,873.03 l 740.86,224.63 2.47,-838.12 c -2.56,-0.42 -5.12,-0.34 -7.68,-1.2 L 6114.08,755.82"
         style="fill:#7fcc28;fill-opacity:1;fill-rule:nonzero;stroke:none"
         id="path28" /><path
         d="m 5668.32,9143.87 -209.18,1535.33 559.75,18.2 -350.57,-1553.53"
         style="fill:#7fcc28;fill-opacity:1;fill-rule:nonzero;stroke:none"
         id="path30" /><path
         d="M 6823.91,40.6016 6142.07,56.8008 C 6134.22,258.5 6125.86,460.102 6117.85,661.902 l 703.49,259.868 2.57,-881.1684"
         style="fill:#7fcc28;fill-opacity:1;fill-rule:nonzero;stroke:none"
         id="path32" /><path
         d="m 4370.57,5946.59 c -5.85,93.81 -11.74,187.57 -17.56,281.26 l 1101.69,722.14 c 20.65,13.49 26.45,41.25 12.8,61.86 -8.49,13.12 -22.7,20.2 -37.25,20.2 -8.41,0 -16.92,-2.37 -24.52,-7.3 L 4346.57,6330.47 c -3.31,53.36 -6.68,106.64 -9.99,159.91 852.46,506.09 1176.99,1196.29 1265.71,1968.71 51.36,-563.76 95.73,-1132.6 134.8,-1705.58 -281.53,-328.16 -640.2,-630.11 -1366.52,-806.92"
         style="fill:#7fcc28;fill-opacity:1;fill-rule:nonzero;stroke:none"
         id="path34" /><path
         d="m 3940.95,5033.63 c -328.99,0 -648.29,108.68 -954.64,298.4 l 624.76,409.51 c 133.91,-69.33 275.75,-128.19 425.89,-175.87 -96.59,-213.13 -49.25,-332.58 -21.28,-530.17 -24.96,-1.25 -49.88,-1.87 -74.73,-1.87"
         style="fill:#7fcc28;fill-opacity:1;fill-rule:nonzero;stroke:none"
         id="path36" /><path
         d="m 4545.9,7991.41 c 10.39,52.17 19.5,103.17 27.96,153.68 l 554.43,302.34 C 4953.4,8245.29 4762.36,8085.37 4545.9,7991.41"
         style="fill:#7fcc28;fill-opacity:1;fill-rule:nonzero;stroke:none"
         id="path38" /><path
         d="m 3877.03,6936.76 c -352.21,0.01 -653.42,126.17 -925.76,323.6 l 722.22,393.81 c 92.41,-114.95 199.64,-227.29 323.66,-336.79 -20.74,-126.49 -41.47,-252.98 -62.2,-379.5 -19.48,-0.75 -38.74,-1.12 -57.92,-1.12"
         style="fill:#7fcc28;fill-opacity:1;fill-rule:nonzero;stroke:none"
         id="path40" /><path
         d="m 4512.04,1992.96 c -3.27,164.15 -6.49,328.3 -9.67,492.52 l 1211.43,798.96 c 20.64,13.65 26.28,41.38 12.63,62.03 -8.49,12.97 -22.75,20.01 -37.29,20.01 -8.42,0 -16.94,-2.36 -24.48,-7.31 l -584.99,-385.78 c 306.01,240.25 578.77,505.56 816.96,796.92 14.67,-362.17 27.89,-725.61 40.26,-1089.54 -419.23,-325.39 -883.07,-574.08 -1424.85,-687.81"
         style="fill:#7fcc28;fill-opacity:1;fill-rule:nonzero;stroke:none"
         id="path42" /><path
         d="m 4461.08,3986.82 c 8.15,80.21 8.78,160.48 4.01,240.84 l 1045.75,741.12 c 20.22,14.25 25,42.15 10.75,62.19 -8.8,12.36 -22.62,18.92 -36.64,18.92 -8.93,0 -17.95,-2.66 -25.81,-8.17 l -1003.24,-711 c -10.14,87.37 -25.85,174.82 -45.75,262.17 275.35,194.44 550.59,388.94 825.89,583.37 226.68,213.73 408.99,441.61 552.66,681.83 -0.16,-4.56 -0.16,-9.09 1.28,-13.65 1.28,-4.4 3.33,-8.31 5.81,-11.9 15.1,-259.41 29.26,-519.49 42.48,-780.31 -11.51,-11.52 -16.72,-28.59 -11.35,-45.14 2.82,-8.62 8.11,-15.44 14.67,-20.73 7.69,-153.32 14.77,-306.88 21.85,-460.61 -404.12,-279.31 -869.17,-462.82 -1402.36,-538.93"
         style="fill:#7fcc28;fill-opacity:1;fill-rule:nonzero;stroke:none"
         id="path44" /><path
         d="m 3921.97,3058.23 c -278.21,0 -543.25,78.2 -797.68,219.13 l 620.32,439.63 c 111.95,-45.14 231.52,-83.96 360.03,-115.35 -18.86,-179.33 -37.64,-358.75 -56.55,-538.08 -42.35,-3.58 -84.37,-5.34 -126.12,-5.33"
         style="fill:#7fcc28;fill-opacity:1;fill-rule:nonzero;stroke:none"
         id="path46" /><path
         d="m 2904.24,5385.13 c -108.86,73.03 -216,156.17 -321.31,248.14 l -17.15,1127.13 c 239.51,-419.62 559.59,-744.65 956.09,-970.43 l -617.63,-404.84"
         style="fill:#7fcc28;fill-opacity:1;fill-rule:nonzero;stroke:none"
         id="path48" /><path
         d="m 3776.52,9254.54 c -10.39,30.4 -20.84,60.77 -31.26,91.16 l 55.81,33.32 c -7.03,-45.04 -15.16,-86.83 -24.55,-124.48"
         style="fill:#7fcc28;fill-opacity:1;fill-rule:nonzero;stroke:none"
         id="path50" /><path
         d="m 2960.42,55.3008 -292.39,1.5 -4.37,290.0972 C 2759.74,246 2858.52,148.602 2960.42,55.3008"
         style="fill:#7fcc28;fill-opacity:1;fill-rule:nonzero;stroke:none"
         id="path52" /><path
         d="m 2874.91,7317.93 c -111.55,87.89 -218.43,187.38 -322.21,294.51 l -46.98,3077.36 648.89,-7.4 -365.35,-267.4 c -19.92,-14.5 -24.38,-42.5 -9.71,-62.4 8.68,-12 22.29,-18.4 36.05,-18.4 9.19,0 18.38,2.8 26.38,8.7 l 408.4,298.8 c 12.92,9.5 18.44,24.6 17.38,39.5 l 1164.18,-13.3 -381.65,-245.5 c -69.82,79.2 -144.34,154.1 -222.84,225.6 4.46,-124.4 7.92,-245.6 9.99,-362.5 l -339.57,-218.4 c -14.59,42.5 -29.16,85.1 -43.77,127.7 -24.93,-67.2 -48.24,-134.2 -69.88,-200.84 l -612.75,-394.15 c -20.8,-13.4 -26.77,-41.04 -13.39,-61.81 8.55,-13.33 22.95,-20.54 37.61,-20.54 8.22,0 16.68,2.32 24.17,7.14 l 523.85,337.02 c -72.41,-248.5 -119.8,-492.69 -133.96,-731.25 l -372.27,-222.03 c -21.15,-12.67 -28.13,-40.12 -15.44,-61.31 8.36,-14.01 23.16,-21.83 38.44,-21.83 7.75,0 15.67,2.03 22.83,6.3 l 322.53,192.45 c -3.17,-183.9 14.01,-364.29 55.39,-540.59 l -432.62,-241.73 c -21.57,-12.11 -29.2,-39.3 -17.18,-60.88 8.11,-14.66 23.34,-22.93 39.01,-22.93 7.41,0 14.85,1.82 21.81,5.7 l 412.2,230.38 c 65.46,-230.54 173.92,-453.76 333.42,-668.29 l -734,-400.2 c -3.59,-1.92 -6.16,-4.79 -8.96,-7.48"
         style="fill:#7fcc28;fill-opacity:1;fill-rule:nonzero;stroke:none"
         id="path54" /><path
         d="m 6012.14,40.6016 -1495.69,7.1992 c -3.38,108.3982 -6.76,216.8012 -10.13,325.1992 18.77,18.402 37.62,36.699 56.45,55.102 l 1240.52,809.338 c 20.73,13.46 26.53,41.28 12.97,61.92 -8.61,13.16 -22.81,20.27 -37.35,20.27 -8.39,0 -16.89,-2.36 -24.5,-7.29 L 4887.09,746.449 c 364.05,361.311 724.77,736.861 1074.97,1158.131 18.6,-619.8 34.89,-1241.478 50.08,-1863.9784"
         style="fill:#7fcc28;fill-opacity:1;fill-rule:nonzero;stroke:none"
         id="path56" /><path
         d="m 4591.27,8256.41 c 47.13,328.92 52.51,620.32 23.55,880.94 l 628.05,350.95 c 21.51,12.06 29.17,39.27 17.15,60.82 -8.12,14.66 -23.27,22.93 -38.97,22.93 -7.39,0 -14.9,-1.83 -21.86,-5.69 L 4602.4,9232.83 c -29.01,196.48 -78,375.06 -144.12,538.2 l 720.95,430.17 c 21.16,12.6 28.15,40 15.44,61.2 -8.36,14.1 -23.15,21.9 -38.38,21.9 -7.77,0 -15.66,-2 -22.87,-6.3 l -710.86,-424.17 c -84.22,184.97 -190.61,349.97 -313.78,499.87 l 414.33,266.5 c 15.94,10.3 22.94,29 19.45,46.5 l 820.26,-9.4 c 68.94,-532 129.42,-1070.25 183.76,-1613.2 -98.28,-164.71 -200.06,-320.09 -307.63,-460.36 -7.25,4.41 -15.59,6.89 -24.04,6.89 -6.85,0 -13.78,-1.63 -20.24,-5.18 l -603.4,-329.04"
         style="fill:#7fcc28;fill-opacity:1;fill-rule:nonzero;stroke:none"
         id="path58" /><path
         d="m 4065.1,820.5 c -494.87,20.652 -963.96,252.61 -1417.95,608.55 l -20.29,1323.63 c 249.8,-378.11 508.58,-677.04 777.87,-883.85 L 3119.68,1680.8 c -20.61,-13.56 -26.35,-41.37 -12.7,-62.03 8.61,-12.96 22.8,-20.04 37.33,-20.04 8.42,0 16.98,2.39 24.55,7.43 l 312.87,206.29 c 180.17,-125.76 364.95,-210.91 555.11,-249.89 9.4,-247.32 18.79,-494.73 28.26,-742.06"
         style="fill:#7fcc28;fill-opacity:1;fill-rule:nonzero;stroke:none"
         id="path60" /><path
         d="m 3715.55,9432.14 c -62.6,182.6 -125.22,365.24 -187.76,547.84 l 311.16,200.22 c 2.71,-262.47 -3.02,-498.32 -23.35,-688.4 l -100.05,-59.66"
         style="fill:#7fcc28;fill-opacity:1;fill-rule:nonzero;stroke:none"
         id="path62" /><path
         d="m 3041.43,3325.65 c -146.11,89.5 -288.68,199.21 -428.22,327 L 2596.89,4720 c 248.39,-405.05 575.39,-745.04 1051.58,-961.56 L 3048.74,3333.4 c -3.04,-2.13 -5.02,-5.03 -7.31,-7.75"
         style="fill:#7fcc28;fill-opacity:1;fill-rule:nonzero;stroke:none"
         id="path64" /><path
         d="m 4469.46,3 c -17.38,0 -33.89,10.1992 -41.2,27.1992 C 4406.61,81 4389.82,134.199 4373.5,185.5 c -74.53,235.602 -139.44,441.402 -630.8,441.402 -34.46,0 -70.98,-1 -109.8,-3.004 -0.41,-0.097 -0.83,-0.097 -1.24,-0.097 -3.11,0 -6.16,0.301 -9.25,0.801 C 2716.61,792.09 1857.8,1836.84 1027.13,2847.3 l -94.767,115.16 c -15.675,19.2 -12.968,47.27 6.172,62.97 8.313,6.86 18.367,10.2 28.367,10.2 12.883,0 25.672,-5.55 34.528,-16.25 l 94.84,-115.35 C 1914.98,1907.99 2761.61,878.191 3633.54,713.52 c 35.38,1.793 69.11,2.66 101.28,2.66 564.04,0 648.98,-266.782 723.91,-503.68 16.43,-51.598 31.87,-100.398 51.88,-147.1992 9.65,-22.8008 -0.92,-49 -23.64,-58.69924 C 4481.21,4.10156 4475.34,3 4469.46,3 M 4109.7,1083.96 c -3.78,0 -7.58,0.59 -11.46,1.62 -23.8,6.22 -38.15,30.62 -31.79,54.51 6.65,25.42 12.86,51.02 18.97,76.52 65.01,269.76 132.32,548.82 801.84,745.3 1.63,0.34 3.29,0.77 4.87,1.02 606.08,106.21 1047.92,554.81 1475.09,988.54 105.1,106.63 213.8,217.04 323.59,321.03 8.64,8.14 19.7,12.2 30.74,12.2 11.87,0 23.72,-4.68 32.56,-13.99 16.81,-17.84 16.04,-46.15 -1.87,-63.23 -108.7,-102.8 -216.7,-212.6 -321.38,-318.81 C 5994.39,2445.46 5543,1987.16 4910.07,1875.33 c -617.65,-181.73 -675.92,-423.68 -737.76,-679.7 -6.25,-26.11 -12.5,-52.22 -19.33,-78.32 -5.34,-20.05 -23.47,-33.35 -43.28,-33.35 m 199.03,1526.16 c -14.36,0 -28.56,6.92 -37.15,19.89 -113.23,169.26 -256.5,322.28 -527.31,322.28 -34.53,0 -71.12,-2.49 -110,-7.75 -3.09,-0.3 -6.32,-0.34 -9.49,-0.34 -1.31,0 -2.61,0 -3.88,0 -736.12,0 -1174.2,578.86 -1527.2,1121.98 -13.52,20.71 -7.64,48.36 13.05,61.83 7.5,4.91 15.95,7.25 24.3,7.25 14.64,0 28.99,-7.18 37.54,-20.37 433.58,-666.82 827.71,-1081.28 1450.68,-1081.28 1.98,0 3.97,0 5.95,0.01 42.29,5.59 82.3,8.23 120.12,8.23 312.65,0 478.71,-180.08 600.48,-362.2 13.8,-20.48 8.23,-48.2 -12.22,-61.92 -7.68,-5.14 -16.32,-7.61 -24.87,-7.61 m -72.32,711.86 c -3.54,0 -7.09,0.35 -10.63,1.2 -23.95,5.79 -38.75,29.94 -32.9,53.99 82.09,338.97 316.38,543.19 716.15,624.49 872.59,210.06 1071.46,436.05 1281.93,675.35 20.98,23.63 41.8,47.26 63.22,70.98 8.81,9.68 20.94,14.56 33.08,14.56 10.76,0 21.54,-3.84 30.05,-11.58 18.25,-16.62 19.61,-44.94 3.07,-63.2 -21.16,-23.22 -41.55,-46.58 -62.28,-69.88 -210.39,-239.22 -428.1,-486.46 -1329.6,-703.57 -363.98,-73.97 -575.55,-256.46 -648.69,-558.14 -4.98,-20.55 -23.27,-34.2 -43.4,-34.2 m -24.23,1091.84 c -18.07,0 -35.05,11.01 -41.85,28.92 -149.96,398.76 -534.87,440.65 -815.81,471.28 -32.46,3.49 -62.94,6.81 -91.02,10.49 -404.46,72.59 -667.2,362.58 -1022.23,796.55 -15.62,19.16 -12.81,47.27 6.27,62.9 8.33,6.8 18.36,10.12 28.32,10.12 12.95,0 25.78,-5.59 34.62,-16.39 342.47,-418.58 594.68,-697.92 966.71,-764.88 25.38,-3.25 55.3,-6.57 86.97,-9.89 286.93,-31.24 720.54,-78.41 889.86,-528.7 8.72,-23.04 -2.95,-48.88 -26.01,-57.5 -5.26,-2.05 -10.54,-2.9 -15.83,-2.9 m -84.42,934.97 c -4.31,0 -8.68,0.6 -13.05,1.97 -23.64,7.15 -36.93,32.19 -29.69,55.79 111.16,363.83 366.18,450.69 612.76,534.72 114.41,38.95 222.35,75.72 315.6,139.36 4.09,2.69 8.44,4.77 13.13,6.14 528.43,147.64 693.35,375.21 943.57,859.41 7.89,15.35 23.49,24.2 39.7,24.2 6.92,0 13.94,-1.61 20.53,-5.02 22.01,-11.36 30.46,-38.32 19.2,-60.25 -255.69,-494.78 -437.4,-745.95 -991.94,-902.54 -101.87,-67.96 -218.25,-107.62 -330.99,-145.93 -235.66,-80.32 -458.22,-156.1 -556.01,-476.2 -5.93,-19.28 -23.68,-31.65 -42.81,-31.65 m -30.16,1134.05 c -13.22,0 -26.25,5.8 -35.13,17.03 -89.28,113.4 -242.97,172.07 -437.53,246.3 -332.35,126.85 -787.54,300.56 -1268.73,874.59 -15.81,18.93 -13.38,47.14 5.56,63 8.38,7.03 18.58,10.46 28.72,10.46 12.78,0 25.48,-5.45 34.32,-15.98 466.14,-556.21 908.83,-725.18 1232,-848.5 207.48,-79.18 371.33,-141.73 475.92,-274.55 15.32,-19.45 12.01,-47.52 -7.49,-62.78 -8.15,-6.5 -17.94,-9.57 -27.64,-9.57 m 186.99,1049.57 c -9.47,0 -18.98,2.97 -27.09,9.18 -19.62,14.87 -23.49,42.94 -8.45,62.6 140.45,184.72 295.94,275.99 460.59,372.69 257.16,150.89 523.08,307.02 758.37,860.37 7.22,17.02 23.71,27.21 41.1,27.21 5.84,0 11.78,-1.15 17.51,-3.58 22.78,-9.7 33.27,-35.91 23.54,-58.64 -246.64,-580.55 -538.06,-751.61 -795.18,-902.49 -156.88,-92.05 -305.02,-179.08 -434.76,-349.7 -8.86,-11.59 -22.15,-17.64 -35.63,-17.64 m -48.22,759.99 c -17.84,0 -34.72,10.81 -41.61,28.43 -109.34,278.58 -245.84,469.56 -377.88,654.29 -160.81,224.89 -312.63,437.34 -372.49,765.54 -4.45,24.25 11.67,47.59 35.9,52.02 2.72,0.49 5.42,0.73 8.08,0.73 21.3,0 40.04,-15.16 43.92,-36.67 56.37,-308.57 195.86,-503.71 357.32,-729.6 128.93,-180.4 275.03,-384.72 388.41,-673.64 8.95,-23.04 -2.35,-48.96 -25.34,-57.98 -5.41,-2.07 -10.94,-3.12 -16.31,-3.12"
         style="fill:#7fcc28;fill-opacity:1;fill-rule:nonzero;stroke:none"
         id="path66" /><path
         d="m 2464.3,3796.07 c -330.87,337.15 -645.49,770.81 -950.63,1260.76 73.89,-194.09 148.56,-381.61 223.95,-562.81 l -734.27,386.38 c -6.291,3.33 -12.909,4.49 -19.51,4.49 -1.356,0 -2.707,-0.05 -4.055,-0.14 v 885.72 L 2138.25,5186.42 c 6.45,-3.24 13.28,-4.86 20.09,-4.86 16.36,0 32.08,9.04 39.95,24.66 11.13,22.09 2.26,48.88 -19.86,59.97 l -1180.688,595.4 c -5.781,2.81 -11.914,4.26 -17.957,4.52 v 778.78 l 950.345,-429.86 c 6.01,-2.63 12.26,-3.91 18.42,-3.91 6.18,0 12.1,1.7 17.71,4.13 141.83,-417.8 284.22,-835.28 474.09,-1213.18 l 23.95,-1206"
         style="fill:#7fcc28;fill-opacity:1;fill-rule:nonzero;stroke:none"
         id="path68" /><path
         d="m 2384.95,7794.09 c -89.98,101.94 -178.23,208.08 -265.92,315.89 15.85,-101.06 34.57,-198.97 55.43,-294.61 L 999.492,8297.52 c -5.285,2.17 -10.719,2.98 -16.074,2.98 -1.215,0 -2.43,-0.04 -3.633,-0.12 v 600.88 L 2168.77,8347.37 c 6.08,-2.8 12.5,-4.18 18.86,-4.18 16.78,0 32.91,9.58 40.53,25.85 10.4,22.35 0.77,49.01 -21.64,59.44 L 991.68,8994.42 c -3.86,1.75 -7.957,2.18 -11.895,2.84 v 734.33 L 2151.35,9085.45 c 6.91,-3.76 14.34,-5.52 21.56,-5.52 15.76,0 31.07,8.3 39.27,23.1 11.89,21.65 4.05,48.82 -17.56,60.76 l -1185.63,653.82 c -6.42,3.52 -13.318,4.98 -20.158,4.98 -3.043,0 -6.078,-0.29 -9.047,-0.82 v 811.43 L 2131.86,9997.86 c 6.9,-3.79 14.3,-5.56 21.56,-5.56 15.83,0 31.07,8.3 39.22,23.1 11.94,21.6 4.05,48.8 -17.58,60.8 l -1114.55,614.6 1266.65,15.2 57.79,-2911.91"
         style="fill:#7fcc28;fill-opacity:1;fill-rule:nonzero;stroke:none"
         id="path70" /><path
         d="m 2424.94,5778.75 c -148.11,144.09 -292.34,304.91 -432.22,478.95 -0.72,16.26 -9.82,31.65 -25.73,38.91 l -8.08,3.62 c -12.65,15.99 -25.34,31.94 -37.85,48.16 4.15,-12.2 8.29,-24.48 12.46,-36.65 l -937.426,423.91 c -5.332,2.39 -10.86,3.47 -16.309,3.72 V 7425.8 L 2063.9,6999.68 c 5.45,-2.09 10.89,-3.1 16.37,-3.1 17.84,0 34.71,10.77 41.66,28.35 9.01,23.03 -2.34,48.98 -25.29,57.95 l -1116.855,439 v 687.1 L 2190.1,7712.26 c 2.86,-1.08 5.65,-1.08 8.47,-1.65 53.23,-219.38 119.95,-423.96 200.23,-613.07 l 26.14,-1318.79"
         style="fill:#7fcc28;fill-opacity:1;fill-rule:nonzero;stroke:none"
         id="path72" /><path
         d="M 1255.77,40.6016 979.785,154.199 V 1055.45 L 2131.68,410.801 c 6.84,-3.801 14.37,-5.699 21.74,-5.699 15.78,0 30.86,8.398 39.06,23 12.1,21.5 4.42,48.699 -17.19,60.796 L 989.699,1152.46 c -3.109,1.78 -6.574,2.21 -9.914,3.15 v 928.73 L 1541.27,1801.6 C 1849.39,1336.23 2171.59,889.609 2529.9,491.102 l 8.27,-418.0004 -1282.4,-32.5"
         style="fill:#7fcc28;fill-opacity:1;fill-rule:nonzero;stroke:none"
         id="path74" /><path
         d="m 1443.28,1951.07 -450.409,226.87 c -4.219,2.12 -8.699,2.81 -13.086,3.57 v 497.89 c 153.495,-244.17 307.065,-488.17 463.495,-728.33"
         style="fill:#7fcc28;fill-opacity:1;fill-rule:nonzero;stroke:none"
         id="path76" /><path
         d="m 2508.99,1541.4 c -338.15,284.95 -668.44,634.23 -995.41,1011.74 l 593.4,-336.91 c 7.04,-4.01 14.57,-5.88 22.08,-5.88 15.53,0 30.72,8.09 38.88,22.6 12.2,21.51 4.7,48.8 -16.77,61 l -808.19,458.99 c -121.38,143.67 -242.39,290.32 -363.195,438.08 v 543.79 L 2000.56,3186.59 c 6.8,-3.59 14.01,-5.37 21.13,-5.37 15.96,0 31.42,8.6 39.41,23.63 11.71,21.75 3.55,48.87 -18.26,60.49 L 989.063,3831.29 c -2.989,1.62 -6.172,1.97 -9.278,2.81 v 957.74 l 812.305,-427.5 c 222.34,-522.37 451.31,-985.97 688.31,-1379.36 l 28.59,-1443.58"
         style="fill:#7fcc28;fill-opacity:1;fill-rule:nonzero;stroke:none"
         id="path78" /><path
         d="m 5865.56,5913.72 c -1.35,24.48 -3.06,48.88 -4.43,73.36 130.96,246.95 222.59,506.52 277.79,777.59 l 1.35,0.13 663.16,141.02 2.13,-714.59 c -1.52,0.17 -3.07,0.26 -4.64,0.26 -4.09,0 -8.32,-0.59 -12.51,-1.88 l -922.85,-275.89"
         style="fill:#7fcc28;fill-opacity:1;fill-rule:nonzero;stroke:none"
         id="path80" /><path
         d="m 5810.12,6841.1 c -35.92,592.94 -73.46,1185.94 -114.5,1778.85 l 505.23,2068.35 591.39,-4.6 0.35,-110 c -3.86,0.9 -7.81,1.4 -11.77,1.4 -5.07,0 -10.17,-0.8 -15.11,-2.9 l -284.77,-119.5 c -22.78,-9.6 -33.53,-35.7 -23.89,-58.5 7.08,-17.2 23.8,-27.4 41.11,-27.4 5.9,0 11.69,1.1 17.5,3.4 l 277.09,116.5 1.71,-566.43 -516.31,-164.72 c -23.55,-7.49 -36.51,-32.67 -28.92,-56.16 5.97,-19 23.63,-31.17 42.49,-31.17 4.51,0 9.13,0.73 13.48,2.13 l 489.6,156.18 1.88,-631.09 c -1.28,-0.32 -2.81,0 -4.09,-0.42 l -743.51,-229.77 c -23.72,-7.3 -36.78,-32.36 -29.52,-55.95 5.8,-19.17 23.56,-31.52 42.57,-31.52 4.52,0 8.96,0.7 13.31,2.05 l 721.49,222.94 1.89,-611.13 c -4.4,1.18 -8.89,1.94 -13.46,1.94 -3.48,0 -7.02,-0.44 -10.59,-1.47 l -816.89,-238.98 c -23.63,-6.97 -37.2,-31.79 -30.37,-55.46 5.63,-19.53 23.46,-32.19 43,-32.19 4,0 8.36,0.57 12.46,1.83 l 816.01,238.69 1.62,-556.4 c -0.09,0 -0.18,0 -0.27,0 -0.89,0 -1.78,0.06 -2.67,0.11 -0.88,0.06 -1.77,0.11 -2.66,0.11 -0.97,0 -1.94,-0.06 -2.92,-0.26 l -963.96,-202.23 c -24.06,-5.08 -39.58,-28.75 -34.47,-52.89 4.36,-21.11 22.95,-35.59 43.6,-35.59 3.15,0 6.05,0.32 9.21,0.97 l 954.49,200.24 2.3,-765.12 c -2.18,0.07 -4.36,0.28 -6.56,0.28 -1.59,0 -3.18,-0.11 -4.79,-0.45 l -635.15,-135.08 c 26.36,153.03 41.97,309.42 46.75,469.27 -141.45,-159.13 -261.24,-325.6 -393.38,-487.86"
         style="fill:#7fcc28;fill-opacity:1;fill-rule:nonzero;stroke:none"
         id="path82" /><path
         d="m 6775.36,5361.37 c 10.91,33.75 22.09,67.1 32.32,101.35 l 0.35,-94.13 c -0.96,0.04 -1.92,0.07 -2.89,0.07 -4.35,0 -8.73,-0.51 -13.06,-1.92 l -16.72,-5.37"
         style="fill:#7fcc28;fill-opacity:1;fill-rule:nonzero;stroke:none"
         id="path84" /><path
         d="m 5939.02,4566.36 c -7.42,140.95 -14.66,281.88 -22.26,422.81 l 696.76,225.75 c -202.11,-252.02 -426.49,-469.06 -674.5,-648.56"
         style="fill:#7fcc28;fill-opacity:1;fill-rule:nonzero;stroke:none"
         id="path86" /><path
         d="m 6318.51,4345.91 c 168.83,282.55 310.87,585.41 423.32,910.56 l 66.54,21.48 2.3,-796.73 c -1.22,0 -2.45,0.02 -3.67,0.02 -2.88,0 -5.77,-0.13 -8.69,-0.96 l -479.8,-134.37"
         style="fill:#7fcc28;fill-opacity:1;fill-rule:nonzero;stroke:none"
         id="path88" /><path
         d="m 6004.21,3266.62 c -9.05,193.22 -18.95,386.63 -28.5,579.87 97.6,124.3 188.71,253.38 273.77,387.22 l 561.54,157.25 2.48,-842.13 c -1.12,0.08 -2.24,0.12 -3.36,0.12 -4.87,0 -9.77,-0.76 -14.56,-2.42 l -791.37,-279.91"
         style="fill:#7fcc28;fill-opacity:1;fill-rule:nonzero;stroke:none"
         id="path90" /><path
         d="m 5911.89,5081.64 c -13.31,246.8 -27.12,493.58 -41.2,740.36 l 935.21,279.5 1.78,-624.4 c -51.18,-75.07 -104.33,-146.95 -158.93,-216.97 17.24,25.09 34.04,50.91 50.85,76.63 l -787.71,-255.12"
         style="fill:#7fcc28;fill-opacity:1;fill-rule:nonzero;stroke:none"
         id="path92" /><path
         d="m 6073.74,1721.07 c -4.01,94.1 -8.19,188.29 -12.3,282.31 102.89,126.6 204.94,257.3 305.52,393.03 l 447.73,141.62 1.87,0.94 1.62,-594.55 c -3.83,-0.09 -7.68,0.09 -11.6,-1.12 l -732.84,-222.23"
         style="fill:#7fcc28;fill-opacity:1;fill-rule:nonzero;stroke:none"
         id="path94" /><path
         d="m 6028.52,2738 c -6.66,145.13 -13.05,290.25 -19.97,435.36 l 759.04,268.48 C 6532.55,3187.35 6288.98,2948.14 6028.52,2738"
         style="fill:#7fcc28;fill-opacity:1;fill-rule:nonzero;stroke:none"
         id="path96" /><path
         d="m 6456.11,2518.34 c 119.95,166.43 238.28,339.53 354.56,522.36 0,138.81 0,277.53 0,416.32 l 2.99,1.03 2.47,-836.06 c -5.24,1.92 -10.82,3.09 -16.52,3.09 -3.93,0 -7.91,-0.56 -11.89,-1.82 l -331.61,-104.92"
         style="fill:#7fcc28;fill-opacity:1;fill-rule:nonzero;stroke:none"
         id="path98" /></g></g></svg>
