<?xml version="1.0" encoding="UTF-8" standalone="no"?>
<!-- Created with Inkscape (http://www.inkscape.org/) -->

<svg
   xmlns:dc="http://purl.org/dc/elements/1.1/"
   xmlns:cc="http://creativecommons.org/ns#"
   xmlns:rdf="http://www.w3.org/1999/02/22-rdf-syntax-ns#"
   xmlns:svg="http://www.w3.org/2000/svg"
   xmlns="http://www.w3.org/2000/svg"
   xmlns:sodipodi="http://sodipodi.sourceforge.net/DTD/sodipodi-0.dtd"
   xmlns:inkscape="http://www.inkscape.org/namespaces/inkscape"
   id="svg2"
   version="1.1"
   inkscape:version="0.48.5 r10040"
   width="400"
   height="47"
   xml:space="preserve"
   sodipodi:docname="kew-science-logo.svg"><metadata
     id="metadata8"><rdf:RDF><cc:Work
         rdf:about=""><dc:format>image/svg+xml</dc:format><dc:type
           rdf:resource="http://purl.org/dc/dcmitype/StillImage" /><dc:title></dc:title></cc:Work></rdf:RDF></metadata><defs
     id="defs6"><clipPath
       clipPathUnits="userSpaceOnUse"
       id="clipPath18"><path
         d="M 0,633.652 0,0 l 4451.53,0 0,633.652 -4451.53,0 z"
         id="path20"
         inkscape:connector-curvature="0" /></clipPath></defs><sodipodi:namedview
     pagecolor="#ffffff"
     bordercolor="#666666"
     borderopacity="1"
     objecttolerance="10"
     gridtolerance="10"
     guidetolerance="10"
     inkscape:pageopacity="0"
     inkscape:pageshadow="2"
     inkscape:window-width="1920"
     inkscape:window-height="1032"
     id="namedview4"
     showgrid="false"
     showguides="true"
     inkscape:guide-bbox="true"
     fit-margin-top="0"
     fit-margin-left="0"
     fit-margin-right="0"
     fit-margin-bottom="0"
     inkscape:zoom="2.5160059"
     inkscape:cx="189.66533"
     inkscape:cy="6.0430046"
     inkscape:window-x="1280"
     inkscape:window-y="0"
     inkscape:window-maximized="1"
     inkscape:current-layer="g10" /><g
     id="g10"
     inkscape:groupmode="layer"
     inkscape:label="ink_ext_XXXXXX"
     transform="matrix(1.25,0,0,-1.25,-16.299622,59.282183)"><path
       inkscape:connector-curvature="0"
       id="path22"
       style="fill:#231f20;fill-opacity:1;fill-rule:nonzero;stroke:none"
       d="m 35.557583,46.539899 -0.995725,-0.0608 C 34.441653,46.377042 34.441653,46.272233 34.441653,46.12451 l 0,-4.150534 0.417335,0 c 0.787611,0 2.127251,0.134381 2.573568,0.905316 0.207564,0.354726 0.266907,0.859651 0.266907,1.258943 0,1.394147 -0.654433,2.401659 -2.14188,2.401659 z m 4.461516,-9.487387 c -0.386424,0 -0.758492,-0.01348 -1.1445,-0.02792 -0.431275,0.502311 -0.817144,1.021953 -1.234479,1.525915 -0.59509,0.726371 -1.175136,1.467872 -1.769811,2.194793 -0.119653,0.146071 -0.252279,0.282103 -0.371931,0.413732 -0.431826,0.47384 -0.431826,0.45926 -1.056725,0.45926 l 0,-1.955603 c 0,-0.474527 -0.07328,-1.824111 0.387111,-2.135786 0.192935,-0.13163 0.505661,-0.147723 0.744,-0.162715 l 0.311483,-0.01458 0,-0.356239 c -0.728266,0.03123 -1.471714,0.05915 -2.200532,0.05915 -0.743862,0 -1.48731,-0.02792 -2.231309,-0.05915 l 0,0.356239 0.312725,0.01458 c 0.23765,0.01499 0.550375,0.03109 0.743861,0.162715 0.460947,0.311675 0.386008,1.661259 0.386008,2.135786 l 0,4.609794 c 0,0.48897 0.104058,1.883255 -0.445765,2.163708 -0.208115,0.103709 -0.446454,0.103709 -0.684104,0.118151 l -0.312725,0.03123 0,0.33946 c 0.729371,-0.01444 1.47337,-0.04291 2.201637,-0.04291 0.78761,0 1.591919,0.05804 2.380081,0.05804 0.817834,0 1.650158,0 2.364486,-0.461048 0.699285,-0.443168 1.056174,-1.214241 1.056174,-2.029328 0,-0.977801 -0.506213,-1.807881 -1.397329,-2.221613 -0.476679,-0.22461 -0.834532,-0.283617 -1.354822,-0.35734 l 3.316466,-3.781373 c 0.446456,-0.502311 0.714328,-0.621563 1.368761,-0.739851 l 0,-0.356239 c -0.460808,0.03123 -0.90671,0.05915 -1.368761,0.05915" /><path
       inkscape:connector-curvature="0"
       id="path24"
       style="fill:#231f20;fill-opacity:1;fill-rule:nonzero;stroke:none"
       d="m 44.805759,43.29303 c -1.650158,0 -2.097027,-1.614494 -2.097027,-2.979208 0,-1.422207 0.401603,-3.126929 2.157336,-3.126929 1.664788,0 2.081985,1.630586 2.081985,2.9953 0,1.407627 -0.417197,3.110837 -2.142294,3.110837 z m 0.02967,-6.460727 c -1.918583,0 -3.628637,1.466772 -3.628637,3.438606 0,1.941161 1.710054,3.379461 3.598965,3.379461 1.888912,0 3.658861,-1.4383 3.658861,-3.395692 0,-2.014747 -1.665339,-3.422375 -3.629189,-3.422375" /><path
       inkscape:connector-curvature="0"
       id="path26"
       style="fill:#231f20;fill-opacity:1;fill-rule:nonzero;stroke:none"
       d="m 54.319597,42.508615 c -0.298096,-0.60822 -0.551478,-1.216991 -0.818799,-1.838553 L 51.522872,36.060131 C 51.38859,35.748593 51.240921,35.438018 51.10664,35.126342 l -0.431275,-0.977801 c -0.178996,-0.400254 -0.535331,-1.259905 -1.086258,-1.259905 -0.25283,0 -0.460946,0.148272 -0.460946,0.415246 0,0.487319 0.431274,0.638342 0.803343,0.830079 0.475437,0.234789 0.75849,1.066518 0.951426,1.510923 l 0.639942,1.452192 -2.200534,5.131087 c -0.283054,0.635041 -0.342397,0.812335 -1.042096,0.902702 l 0,0.34111 c 0.535884,-0.01499 1.056035,-0.02847 1.591919,-0.02847 0.550375,0 1.100336,0.01348 1.650711,0.02847 l 0,-0.34111 c -0.357993,-0.05804 -0.907264,0.04567 -0.907264,-0.461048 0,-0.369169 0.401603,-1.271734 0.549271,-1.614494 l 1.028019,-2.475245 1.204394,2.874398 c 0.133729,0.327768 0.356336,0.876845 0.356336,1.231434 0,0.415383 -0.520289,0.429825 -0.818385,0.444955 l 0,0.34111 c 0.372068,-0.01499 0.72937,-0.02847 1.100887,-0.02847 0.357439,0 0.699147,0.01348 1.056034,0.02847 l 0,-0.34111 c -0.520702,-0.02957 -0.550374,-0.177432 -0.772567,-0.62225" /><path
       inkscape:connector-curvature="0"
       id="path28"
       style="fill:#231f20;fill-opacity:1;fill-rule:nonzero;stroke:none"
       d="m 59.429747,40.745299 c -0.417335,-0.178945 -0.848057,-0.37082 -1.249659,-0.595292 -0.640356,-0.354588 -1.383252,-0.813986 -1.383252,-1.642552 0,-0.564069 0.371931,-1.084261 0.967158,-1.084261 0.624209,0 1.23448,0.446055 1.665753,0.859651 l 0,2.462454 z m 1.353166,-3.825517 c -0.624898,0 -1.100887,0.386912 -1.279331,0.977939 -0.714328,-0.563106 -1.576325,-1.065418 -2.513811,-1.065418 -0.788162,0 -1.53161,0.443168 -1.53161,1.30447 0,1.243812 1.204946,1.763317 2.171552,2.192042 l 1.114274,0.505062 c 0.134834,0.05749 0.551479,0.236438 0.625314,0.370819 l 0.04527,0.339459 c 0,1.09774 -0.119101,1.748875 -1.353028,1.748875 -0.699837,0 -1.294374,-0.05901 -1.398432,-0.858001 -0.04472,-0.370682 -0.208116,-0.652785 -0.625313,-0.652785 -0.29713,0 -0.53478,0.236439 -0.53478,0.532984 0,1.141754 1.978479,1.335142 2.780579,1.335142 1.472819,0 2.424796,-0.35734 2.424796,-1.987927 l 0,-2.859406 c 0,-0.370819 0.01518,-1.200898 0.549961,-1.200898 0.297545,0 0.446869,0.163952 0.624761,0.38416 l 0.268011,-0.147722 c -0.283054,-0.518542 -0.758628,-0.918795 -1.368209,-0.918795" /><path
       inkscape:connector-curvature="0"
       id="path30"
       style="fill:#231f20;fill-opacity:1;fill-rule:nonzero;stroke:none"
       d="m 64.138709,37.052512 c -0.565555,0 -1.116482,-0.02792 -1.680934,-0.05915 l 0,0.356239 c 0.921892,0.08872 1.02595,0.148823 1.040441,1.082611 0,0.221446 0.01573,0.459397 0.01573,0.680844 l 0,5.723626 c 0,0.413734 0.05921,1.303919 -0.387663,1.525916 -0.207564,0.103159 -0.534228,0.132593 -0.757939,0.148822 l 0,0.310438 c 0.832877,0.103159 1.621039,0.267111 2.424244,0.473978 l 0,-8.18278 c 0,-0.221447 0.01518,-0.459398 0.01518,-0.680844 0.01449,-0.94823 0.103505,-0.977802 1.025259,-1.082611 l 0,-0.356239 c -0.564452,0.03123 -1.129869,0.05915 -1.694321,0.05915" /><path
       inkscape:connector-curvature="0"
       id="path32"
       style="fill:#231f20;fill-opacity:1;fill-rule:nonzero;stroke:none"
       d="m 21.908071,32.919108 c -0.22371,0 -0.833429,0.06079 -0.921202,-0.206866 l -0.04637,-0.370682 0,-3.586328 0.953081,0 c 1.323494,0 2.097028,0.710828 2.097028,2.04432 0,1.364714 -0.684657,2.119556 -2.082537,2.119556 z m -0.04361,-4.535658 -0.923962,0 0,-2.282408 c 0,-0.60712 -0.05824,-1.838554 0.58115,-2.1787 0.267874,-0.147723 0.625866,-0.162302 0.922305,-0.162302 l 0.08957,0 0.177341,0.01458 c 0.432378,0.04457 0.89222,0.07414 1.279746,0.295445 0.638837,0.35624 0.862548,1.245463 0.862548,1.91269 0,1.955741 -1.279194,2.400696 -2.988695,2.400696 z m 3.925077,-4.283814 c -0.936382,-0.695836 -1.99297,-0.667227 -3.107796,-0.682357 -0.625313,0 -1.235031,-0.01348 -1.859378,-0.01348 -0.223158,0 -0.445213,0.01348 -0.653881,0.01348 -0.744,0 -1.487309,-0.04291 -2.216817,-0.05915 l 0,0.35624 0.313277,0.01458 c 0.237787,0.01499 0.519186,0.03109 0.728267,0.149373 0.490617,0.311537 0.401602,1.660158 0.401602,2.149128 l 0,4.609794 c 0,0.48897 0.08902,1.83759 -0.401602,2.134136 -0.192935,0.13328 -0.505661,0.147722 -0.728267,0.162852 l -0.313277,0.0161 0,0.339459 c 0.87828,-0.02792 1.769949,-0.04291 2.64754,-0.04291 0.595089,0 1.176239,0.04291 1.769811,0.04291 1.517532,0 3.272301,-0.518404 3.272301,-2.327385 0,-0.815637 -0.432378,-1.496345 -1.160093,-1.867163 -0.356336,-0.178808 -0.713776,-0.281966 -1.099783,-0.399154 0.876072,-0.178395 1.827498,-0.312638 2.513258,-0.94933 0.504556,-0.474527 0.802239,-1.09609 0.802239,-1.794539 0,-0.725408 -0.32625,-1.407765 -0.907401,-1.852583" /><path
       inkscape:connector-curvature="0"
       id="path34"
       style="fill:#231f20;fill-opacity:1;fill-rule:nonzero;stroke:none"
       d="m 31.198336,29.657797 c -1.650158,0 -2.097578,-1.614494 -2.097578,-2.979207 0,-1.422207 0.402154,-3.12693 2.157888,-3.12693 1.664787,0 2.080881,1.630587 2.080881,2.9953 0,1.407627 -0.416094,3.110837 -2.141191,3.110837 z m 0.03009,-6.460726 c -1.918584,0 -3.629052,1.466772 -3.629052,3.438605 0,1.941161 1.710468,3.379461 3.598965,3.379461 1.889464,0 3.659275,-1.4383 3.659275,-3.395691 0,-2.014747 -1.667408,-3.422375 -3.629188,-3.422375" /><path
       inkscape:connector-curvature="0"
       id="path36"
       style="fill:#231f20;fill-opacity:1;fill-rule:nonzero;stroke:none"
       d="m 37.985419,23.197071 c -1.248004,0 -1.81287,0.531884 -1.81287,1.778309 l 0,4.445979 -0.790371,0 0,0.177432 0.06101,0.03109 c 0.774085,0.459397 1.426862,1.051525 1.769811,1.896597 l 0.237649,0 0,-1.718202 1.711158,0 0,-0.386912 -1.711158,0 0,-3.914096 c 0,-0.311537 0,-0.621562 0.04485,-0.917144 0.05921,-0.608633 0.22371,-0.94988 0.878143,-0.94988 0.536436,0 0.788162,0.326667 1.099783,0.725408 l 0.267874,-0.221447 c -0.327217,-0.726921 -1.011873,-0.947129 -1.755873,-0.947129" /><path
       inkscape:connector-curvature="0"
       id="path38"
       style="fill:#231f20;fill-opacity:1;fill-rule:nonzero;stroke:none"
       d="m 44.309484,27.110066 c -0.416784,-0.178945 -0.848748,-0.370819 -1.25035,-0.595291 -0.639666,-0.354589 -1.382009,-0.813987 -1.382009,-1.642553 0,-0.564069 0.370413,-1.084261 0.967986,-1.084261 0.622414,0 1.233789,0.446056 1.664373,0.859651 l 0,2.462454 z m 1.353856,-3.825517 c -0.626555,0 -1.101301,0.386912 -1.280712,0.977939 -0.7135,-0.563105 -1.574668,-1.065417 -2.512431,-1.065417 -0.788162,0 -1.532713,0.443168 -1.532713,1.304469 0,1.243812 1.20605,1.763317 2.171551,2.192042 l 1.114551,0.505062 c 0.135248,0.05749 0.552031,0.236439 0.626555,0.37082 l 0.04278,0.339459 c 0,1.09774 -0.117306,1.748874 -1.351095,1.748874 -0.701356,0 -1.294789,-0.05901 -1.398294,-0.858001 -0.04527,-0.370681 -0.20922,-0.652784 -0.626004,-0.652784 -0.296992,0 -0.534642,0.236438 -0.534642,0.532983 0,1.141755 1.977375,1.335142 2.779752,1.335142 1.473923,0 2.424795,-0.35734 2.424795,-1.987926 l 0,-2.859407 c 0,-0.370819 0.01656,-1.200898 0.550651,-1.200898 0.298097,0 0.445765,0.163953 0.623795,0.384161 l 0.269115,-0.147723 c -0.282915,-0.518541 -0.759042,-0.918795 -1.367656,-0.918795" /><path
       inkscape:connector-curvature="0"
       id="path40"
       style="fill:#231f20;fill-opacity:1;fill-rule:nonzero;stroke:none"
       d="m 53.70781,23.417279 c -0.581013,0 -1.145464,-0.02792 -1.725096,-0.05915 l 0,0.35624 c 0.935692,0.08872 1.025396,0.148823 1.040577,1.08261 0,0.221446 0.01518,0.459398 0.01518,0.680844 l 0,1.720815 c 0,1.023604 -0.04555,2.311431 -1.369037,2.311431 -0.579633,0 -1.233789,-0.311676 -1.576048,-0.785515 -0.401603,-0.563106 -0.387802,-1.259905 -0.387802,-1.92782 l 0,-1.318911 c 0,-0.221446 0.01656,-0.459398 0.01656,-0.680844 0.0138,-0.933787 0.103505,-0.993894 1.040578,-1.08261 l 0,-0.35624 c -0.565832,0.03123 -1.116482,0.05915 -1.680934,0.05915 -0.565832,0 -1.130283,-0.02792 -1.694735,-0.05915 l 0,0.35624 c 0.937072,0.104809 1.011597,0.148823 1.025398,1.08261 0,0.221446 0.01518,0.459398 0.01518,0.680844 l 0,1.839103 c 0,0.35569 0.04416,1.525779 -0.252554,1.792889 -0.149049,0.11815 -0.357441,0.11815 -0.535471,0.134243 l -0.282915,0.01513 0,0.310025 c 0.72868,0.08858 1.367656,0.297096 2.067355,0.534496 0.133868,-0.504924 0.17803,-0.948229 0.208391,-1.467734 0.550652,0.905316 1.308314,1.379156 2.380634,1.379156 0.905331,0 1.947289,-0.296545 2.199843,-1.290577 0.08971,-0.34111 0.104886,-0.711928 0.104886,-1.068169 0,-0.72527 0,-1.451641 0,-2.178562 0,-0.221446 0.0138,-0.459398 0.0138,-0.680844 0,-0.281965 -0.02898,-0.770935 0.267735,-0.918657 0.237373,-0.118288 0.506488,-0.134381 0.772843,-0.163953 l 0,-0.35624 c -0.549271,0.03123 -1.115103,0.05915 -1.664373,0.05915" /><path
       inkscape:connector-curvature="0"
       id="path42"
       style="fill:#231f20;fill-opacity:1;fill-rule:nonzero;stroke:none"
       d="m 57.483702,32.035249 c -0.447145,0 -0.818386,0.341247 -0.818386,0.800645 0,0.459398 0.357439,0.8166 0.818386,0.8166 0.459565,0 0.803203,-0.370682 0.803203,-0.8166 0,-0.443305 -0.357439,-0.800645 -0.803203,-0.800645 z m 0.193209,-8.61797 c -0.56445,0 -1.145463,-0.02792 -1.711295,-0.05915 l 0,0.35624 c 0.923272,0.08872 1.026777,0.148823 1.040578,1.08261 0,0.221446 0.01656,0.459398 0.01656,0.680844 l 0,2.075405 c 0,0.237538 0.03036,1.23157 -0.103505,1.438299 -0.120067,0.178945 -0.313278,0.223097 -0.52167,0.223097 -0.162848,0 -0.342259,-0.01623 -0.506488,-0.03068 l 0,0.34111 c 0.863928,0.14786 1.577428,0.326117 2.409614,0.578647 l 0,-4.625886 c 0,-0.221446 0.01518,-0.459398 0.01518,-0.680844 0.01518,-0.948229 0.104886,-0.993894 1.041958,-1.08261 l 0,-0.35624 c -0.564451,0.03123 -1.116482,0.05915 -1.680934,0.05915" /><path
       inkscape:connector-curvature="0"
       id="path44"
       style="fill:#231f20;fill-opacity:1;fill-rule:nonzero;stroke:none"
       d="m 62.890843,23.197071 c -1.875524,0 -3.228001,1.317949 -3.228001,3.186074 0,2.104976 1.560868,3.631992 3.673767,3.631992 0.609993,0 1.962469,-0.178394 1.962469,-1.023604 0,-0.266973 -0.223572,-0.534497 -0.506488,-0.534497 -0.35468,0 -0.52029,0.298196 -0.654157,0.577548 -0.220813,0.490484 -0.267735,0.595292 -0.847368,0.595292 -1.635391,0 -2.128078,-1.632237 -2.128078,-2.9942 0,-1.423857 0.433343,-2.950873 2.14326,-2.950873 0.804584,0 1.398018,0.370819 1.919686,0.948367 l 0.310518,-0.282103 C 64.868494,23.567753 63.91762,23.197071 62.890843,23.197071" /><path
       inkscape:connector-curvature="0"
       id="path46"
       style="fill:#231f20;fill-opacity:1;fill-rule:nonzero;stroke:none"
       d="m 22.498743,12.657231 c 0,-0.533534 0.02898,-1.068168 0.08833,-1.602665 -1.040578,0 -1.233789,-0.206866 -2.111518,-0.651272 -0.801825,-0.400253 -1.486344,-0.5775479 -2.394435,-0.5775479 -1.382837,0 -2.586264,0.3841609 -3.599241,1.3486209 -1.039199,0.992381 -1.442181,2.133998 -1.442181,3.557856 0,3.125967 2.111518,5.469583 5.310537,5.469583 1.159265,0 2.155681,-0.251018 3.107934,-0.933375 l 0.325699,0.682357 0.165608,0 -0.165608,-3.010293 -0.325699,0 c -0.08971,1.734295 -1.219988,2.890492 -2.990627,2.890492 -2.86918,0 -3.553699,-2.682112 -3.553699,-5.055851 0,-2.208134 0.817006,-4.549136 3.40603,-4.549136 1.487724,0 2.571085,0.652785 2.571085,2.252286 0,0.977939 -0.311898,1.275035 -1.293133,1.320699 l 0,0.339597 c 0.670718,-0.01458 1.353856,-0.02957 2.024574,-0.02957 0.637595,0 1.26139,0.01499 1.901746,0.02957 l 0,-0.339597 c -0.830807,0 -1.025398,-0.356239 -1.025398,-1.141754" /><path
       inkscape:connector-curvature="0"
       id="path48"
       style="fill:#231f20;fill-opacity:1;fill-rule:nonzero;stroke:none"
       d="m 28.054935,13.798985 c -0.418164,-0.178945 -0.848748,-0.370819 -1.24897,-0.595291 -0.640356,-0.354589 -1.384218,-0.813986 -1.384218,-1.642553 0,-0.564068 0.371241,-1.084261 0.964674,-1.084261 0.626555,0 1.236549,0.446057 1.668514,0.859652 l 0,2.462453 z M 29.40741,9.9734685 c -0.625175,0 -1.101302,0.3869125 -1.279332,0.9779395 -0.714879,-0.563106 -1.576047,-1.0654176 -2.51312,-1.0654176 -0.788024,0 -1.533266,0.4431676 -1.533266,1.3044696 0,1.243812 1.206188,1.763316 2.170861,2.192041 l 1.116483,0.505063 c 0.133867,0.05749 0.552031,0.236438 0.625174,0.370819 l 0.04555,0.339459 c 0,1.09774 -0.118687,1.748875 -1.353857,1.748875 -0.699699,0 -1.294512,-0.05901 -1.398017,-0.858001 -0.04555,-0.370682 -0.208392,-0.652785 -0.626555,-0.652785 -0.296718,0 -0.534091,0.236438 -0.534091,0.532984 0,1.141754 1.977652,1.335141 2.779476,1.335141 1.473922,0 2.424796,-0.357339 2.424796,-1.987926 l 0,-2.859406 c 0,-0.370819 0.01656,-1.200899 0.55203,-1.200899 0.296717,0 0.445765,0.163953 0.625175,0.384161 l 0.267735,-0.147722 C 30.49215,10.373722 30.016024,9.9734685 29.40741,9.9734685" /><path
       inkscape:connector-curvature="0"
       id="path50"
       style="fill:#231f20;fill-opacity:1;fill-rule:nonzero;stroke:none"
       d="m 36.069043,15.385008 c -0.625175,0 -0.491308,0.784414 -1.07232,0.784414 -0.474747,0 -0.950874,-0.370682 -1.188247,-0.755942 -0.35606,-0.577549 -0.35606,-1.215892 -0.35606,-1.867026 l 0,-1.379706 c 0,-0.221446 0.0138,-0.459397 0.0138,-0.680843 0.03036,-1.009025 0.193211,-1.009025 1.145464,-1.082611 l 0,-0.356239 c -0.581012,0.03122 -1.159265,0.05914 -1.740277,0.05914 -0.579632,0 -1.160645,-0.02792 -1.740278,-0.05914 l 0,0.356239 c 0.937073,0.104809 1.010217,0.148823 1.026778,1.082611 0,0.221446 0.0138,0.459397 0.0138,0.680843 l 0,1.823974 c 0,0.370819 0.06073,1.557138 -0.269115,1.824111 -0.146288,0.102058 -0.35468,0.102058 -0.518908,0.118151 l -0.282917,0.01513 0,0.310025 c 0.714881,0.08858 1.338676,0.311538 2.023194,0.534497 0.132487,-0.549076 0.191831,-1.053039 0.208392,-1.615595 0.460945,0.917146 1.098541,1.527016 2.172241,1.527016 0.460946,0 1.113722,-0.206866 1.113722,-0.771072 0,-0.312638 -0.237373,-0.547976 -0.54927,-0.547976" /><path
       inkscape:connector-curvature="0"
       id="path52"
       style="fill:#231f20;fill-opacity:1;fill-rule:nonzero;stroke:none"
       d="m 42.226948,14.020294 c -0.0138,0.845209 0.01656,1.378193 -0.743863,1.883255 -0.325698,0.206729 -0.683137,0.326668 -1.069559,0.326668 -1.638152,0 -2.128079,-1.632375 -2.128079,-2.994337 0,-1.364714 0.447145,-2.906722 2.083916,-2.906722 0.609995,0 1.262771,0.297095 1.560867,0.830079 0.237374,0.429826 0.313278,1.319049 0.313278,1.794539 0,0.354589 -0.01656,0.709316 -0.01656,1.066518 z M 42.687893,9.8553181 C 42.525044,10.240579 42.433959,10.611261 42.375995,11.026645 41.706658,10.226 41.096664,9.8859904 40.042285,9.8859904 c -1.934868,0 -3.258362,1.4505416 -3.258362,3.3498896 0,1.867024 1.338674,3.468176 3.272162,3.468176 0.862549,0 1.547068,-0.312775 2.14188,-0.934888 l 0,2.562862 c 0,0.94988 -0.17803,1.157847 -1.145464,1.233084 l 0,0.310437 c 0.818386,0.103158 1.621592,0.267111 2.424796,0.473978 l 0,-7.782527 c 0,-0.459398 -0.04555,-1.48025 0.431964,-1.763454 0.17803,-0.103571 0.400222,-0.118151 0.608614,-0.118151 l 0.194591,0 0,-0.297095 C 44.027948,10.226 43.358611,10.047055 42.687893,9.8553181" /><path
       inkscape:connector-curvature="0"
       id="path54"
       style="fill:#231f20;fill-opacity:1;fill-rule:nonzero;stroke:none"
       d="m 48.344829,16.346717 c -1.204807,0 -1.547066,-0.815087 -1.784439,-1.852033 l 2.675969,0 c 0.267736,0 0.567212,-0.02943 0.567212,0.311675 0,0.917146 -0.506489,1.540358 -1.458742,1.540358 z m 2.663549,-2.252287 -4.523893,0 c -0.05935,-0.237951 -0.07314,-0.459398 -0.07314,-0.695698 0,-1.43885 0.757663,-2.949773 2.380633,-2.949773 0.817006,0 1.41182,0.398741 1.903127,1.021953 l 0.313277,-0.311675 c -0.743861,-0.874093 -1.504283,-1.2732466 -2.663549,-1.2732466 -1.933488,0 -3.435012,1.3044696 -3.435012,3.2746526 0,1.896597 1.486343,3.543413 3.419832,3.543413 1.457361,0 2.87056,-0.875744 2.87056,-2.445673 0,-0.149373 -0.04416,-0.163953 -0.191831,-0.163953" /><path
       inkscape:connector-curvature="0"
       id="path56"
       style="fill:#231f20;fill-opacity:1;fill-rule:nonzero;stroke:none"
       d="m 57.970868,10.106199 c -0.579633,0 -1.144083,-0.02792 -1.726476,-0.05914 l 0,0.356239 c 0.937072,0.08872 1.026777,0.148823 1.041958,1.082611 0,0.221446 0.01518,0.459397 0.01518,0.680843 l 0,1.720816 c 0,1.023604 -0.04416,2.31143 -1.369037,2.31143 -0.579632,0 -1.233789,-0.311674 -1.576048,-0.785514 -0.401603,-0.563107 -0.386422,-1.259906 -0.386422,-1.92782 l 0,-1.318912 c 0,-0.221446 0.0138,-0.459397 0.0138,-0.680843 0.01656,-0.933788 0.104887,-0.993895 1.041959,-1.082611 l 0,-0.356239 c -0.565831,0.03122 -1.116482,0.05914 -1.680934,0.05914 -0.565831,0 -1.130283,-0.02792 -1.694735,-0.05914 l 0,0.356239 c 0.937073,0.104809 1.010217,0.148823 1.025397,1.082611 0,0.221446 0.01656,0.459397 0.01656,0.680843 l 0,1.839104 c 0,0.355689 0.04278,1.525778 -0.253934,1.792888 -0.150429,0.118151 -0.35744,0.118151 -0.53547,0.134244 l -0.282916,0.01513 0,0.310025 c 0.728682,0.08858 1.369038,0.297096 2.067356,0.534497 0.133868,-0.504925 0.179411,-0.94823 0.208392,-1.467734 0.55065,0.905316 1.308313,1.379155 2.380633,1.379155 0.905331,0 1.945909,-0.296545 2.199843,-1.290576 0.08971,-0.341111 0.106266,-0.711929 0.106266,-1.068169 0,-0.725271 0,-1.451642 0,-2.178563 0,-0.221446 0.01242,-0.459397 0.01242,-0.680843 0,-0.281966 -0.02898,-0.770936 0.267735,-0.918658 0.237374,-0.118288 0.506489,-0.134381 0.774223,-0.163953 l 0,-0.356239 c -0.550651,0.03122 -1.115102,0.05914 -1.665753,0.05914" /><path
       inkscape:connector-curvature="0"
       id="path58"
       style="fill:#231f20;fill-opacity:1;fill-rule:nonzero;stroke:none"
       d="m 62.577566,9.8859904 c -0.609994,0 -1.175825,0.1772946 -1.680934,0.5318836 l -0.296716,-0.4444055 -0.237374,0 -0.03036,2.1652205 0.281535,0 C 60.866267,11.143144 61.356194,10.226 62.51822,10.226 c 0.683138,0 1.24897,0.354589 1.24897,1.081097 0,1.586572 -3.346688,1.43885 -3.346688,3.604071 0,1.005723 0.847368,1.792888 1.843784,1.792888 0.520288,0 1.026776,-0.13438 1.487723,-0.370681 l 0.296716,0.356102 0.17941,0 -0.02898,-1.883118 -0.284297,0 c -0.296716,0.798994 -0.593432,1.540358 -1.576047,1.540358 -0.505108,0 -0.952253,-0.266973 -0.952253,-0.815087 0,-0.652785 0.447145,-0.872993 0.967433,-1.140654 1.130283,-0.577548 2.438597,-0.992244 2.438597,-2.475246 0,-1.259905 -1.011597,-2.0297396 -2.215024,-2.0297396" /><path
       inkscape:connector-curvature="0"
       id="path60"
       style="fill:#231f20;fill-opacity:1;fill-rule:nonzero;stroke:none"
       d="m 116.66941,28.332372 -14.315,-0.01625 0.039,0.479685 c 0.45505,4.425608 3.00846,8.47321 7.08066,8.554778 4.63236,0.09343 7.16673,-3.502602 7.19529,-9.018209 z m 4.32683,-0.935759 c 0,2.983112 -1.53693,5.868577 -3.07989,7.398693 -2.0849,2.081404 -4.97991,3.204861 -8.2864,3.204861 -7.46011,0 -12.659789,-6.310058 -12.659789,-14.071808 0,-8.360847 6.017639,-14.0926912 13.967859,-14.0926912 3.67184,0 6.13204,1.2958382 7.44523,2.3288872 1.25278,0.986011 1.99753,1.990562 2.50413,2.900563 0.84683,1.517344 0.9426,2.270507 0.9426,2.270507 l -0.62683,0.277395 c 0,0 -0.22482,-0.568254 -0.89398,-1.705534 -0.6873,-1.170725 -2.09752,-2.138894 -2.87174,-2.588448 -0.67218,-0.404375 -2.42346,-1.082644 -5.08223,-1.082644 -3.21263,0 -10.05215,2.38983 -10.05215,14.671991 l 0.003,0.376997 18.68945,-0.0097 9.9e-4,0.12096" /><path
       inkscape:connector-curvature="0"
       id="path62"
       style="fill:#231f20;fill-opacity:1;fill-rule:nonzero;stroke:none"
       d="m 153.06292,37.921802 0.005,-0.766334 1.01367,-0.08803 c 1.10177,-0.119358 2.52854,-0.379548 3.20769,-1.017981 0.38035,-0.3557 0.72142,-0.837699 0.45773,-1.650423 l -6.37487,-16.726929 -5.7624,15.377566 c -0.39345,1.033049 -0.53154,1.485386 -0.53154,2.0712 0,0.995319 0.85713,1.741483 1.99342,1.856628 l 2.1839,0.159936 0,0.788578 -13.58074,0.0046 0,-0.800622 1.37201,-0.06258 c 1.30533,-0.07024 2.03151,-0.01459 2.88745,-0.962396 0.65475,-0.725282 0.2869,-1.68121 0.27618,-1.706008 l -6.40167,-16.795742 -5.68206,15.446381 c -0.41963,1.033049 -0.60629,1.665015 -0.60629,2.253143 0.0491,1.108804 1.09676,1.535218 1.8039,1.664957 0.67736,0.124697 1.74282,0.155247 1.74282,0.155247 l -0.007,0.807623 -13.34657,-0.0046 -9.8e-4,-0.795994 c 0,0 0.90004,-0.01 2.10192,-0.15252 1.20117,-0.142256 2.02938,-0.861309 2.88775,-3.166597 l 8.53605,-22.82701 0.2756,-0.732269 0.44046,0 0.30179,0.732269 8.64152,22.0271 7.96415,-21.976818 0.30119,-0.782551 0.54106,0 0.26071,0.732269 8.16296,20.626783 0.72439,1.596142 c 0.5113,1.196899 0.70535,1.456437 1.02915,2.034598 0.58868,1.049007 1.83509,1.39035 3.49161,1.67421 1.00118,0.1998 1.48093,0.16919 2.10234,0.239843 l -0.0101,0.779088 -12.40277,-0.01276" /><path
       inkscape:connector-curvature="0"
       id="path64"
       style="fill:#231f20;fill-opacity:1;fill-rule:nonzero;stroke:none"
       d="m 100.92985,11.110647 c -2.356026,0 -4.518429,2.517285 -6.211318,4.592424 l -12.346818,18.235316 7.169524,8.133705 c 2.430852,2.528163 3.799461,3.707206 6.663282,3.939397 l 1.506224,0.118882 -0.0038,0.861369 -12.688361,-0.01507 -0.007,-0.935522 c 0,0 0.680346,0.0075 1.254384,-0.06715 1.205575,-0.06027 2.396032,-0.692418 2.382997,-1.771146 -0.01554,-1.257111 -1.086768,-2.351322 -2.283236,-3.620062 l -9.66449,-10.72914 -0.0044,11.774707 c 0,3.836946 1.789435,4.204749 2.338651,4.287682 0.916771,0.14018 1.604081,0.149909 1.604081,0.149909 l -0.0044,0.902597 -12.563025,-0.01435 0.0096,-0.868548 c 0,0 0.878892,-0.0097 1.748247,-0.08916 0.869592,-0.08044 2.180023,-0.531178 2.180023,-4.368124 l 0,-26.304162 c 0,-3.834438 -0.859825,-4.249466 -3.214697,-4.249466 l -0.713573,0.0046 0.0093,-0.993887 12.806251,-6.96e-4 -0.0093,1.025408 -0.8057,0.0088 c -2.356211,0 -3.38536,0.370768 -3.38536,4.205205 l 0,12.336169 2.286747,2.51541 11.284456,-16.579821 c 0,0 0.270412,-0.34574 0.300888,-0.674335 0.03095,-0.32836 -0.04536,-0.758219 -0.281128,-1.053677 -0.40971,-0.51446 -1.203983,-0.757311 -2.699731,-0.757311 l -0.171367,0 c -0.427611,0 -0.555228,-0.0039 -0.555228,-0.0039 l 0,-1.015673 14.882547,0 0.008,0.993659 -0.82237,0.02595" /><path
       inkscape:connector-curvature="0"
       id="path66"
       style="fill:#7b7979;fill-opacity:1;fill-rule:nonzero;stroke:none"
       d="m 170.85965,9.9832798 c -4.61958,0 -8.19214,2.3335212 -8.19214,5.3409142 0,1.658045 1.10892,2.946894 2.46365,2.946894 1.23213,0 2.27915,-0.981794 2.27915,-2.149032 0,-0.428945 -0.0613,-0.919985 -0.18512,-1.41125 -0.12322,-0.490808 -0.24584,-0.85995 -0.24584,-1.104889 0,-1.228168 1.41665,-2.148604 3.32614,-2.148604 2.64877,0 4.74278,2.025094 4.74278,4.48025 0,1.351731 -0.49285,2.640581 -1.60116,4.175324 l -3.51125,4.727086 c -1.10891,1.534506 -1.84819,3.683598 -1.84819,5.525099 0,4.235833 3.75768,7.428592 8.80878,7.428592 3.9422,0 6.77549,-1.719178 6.77549,-4.051814 0,-1.350723 -0.86249,-2.333288 -2.09461,-2.333288 -1.17022,0 -2.09402,1.043964 -2.15533,2.394273 -0.0619,2.087394 -0.49285,2.517248 -2.58745,2.517248 -2.03271,0 -3.69578,-1.473581 -3.69578,-3.253683 0,-1.350546 0.61607,-2.701328 2.15592,-4.727087 4.74338,-6.139209 5.17432,-6.875406 5.17432,-9.761169 0,-4.84941 -4.18862,-8.5948642 -9.60936,-8.5948642" /><path
       inkscape:connector-curvature="0"
       id="path68"
       style="fill:#7b7979;fill-opacity:1;fill-rule:nonzero;stroke:none"
       d="m 193.2188,9.9832798 c -4.9892,0 -8.31593,3.4377162 -8.31593,8.4720652 0,3.437941 1.41724,7.673715 3.75767,11.29615 3.32674,5.095007 8.0076,8.042169 12.75038,8.042169 3.32674,0 5.8511,-1.964834 5.8511,-4.543304 0,-1.657541 -1.29224,-2.946687 -2.9559,-2.946687 -1.47855,0 -2.64937,1.166525 -2.64937,2.639453 0,0.675452 0.24762,1.227926 0.80118,1.903376 0.18453,0.245656 0.30893,0.429913 0.30893,0.552711 0,0.552178 -0.61666,0.92087 -1.41664,0.92087 -2.09461,0 -4.06601,-1.596142 -5.72907,-4.604229 -2.58687,-4.788723 -4.55827,-11.357311 -4.55827,-15.347726 0,-2.577983 1.53986,-4.235317 3.9422,-4.235317 2.9565,0 5.85169,2.332131 8.74688,7.182479 l 1.23212,-0.798308 c -1.41724,-2.455435 -2.03271,-3.437959 -3.38744,-4.788248 -2.40234,-2.517285 -5.17492,-3.7454542 -8.37784,-3.7454542" /><path
       inkscape:connector-curvature="0"
       id="path70"
       style="fill:#7b7979;fill-opacity:1;fill-rule:nonzero;stroke:none"
       d="m 215.63867,9.9832798 c -2.64877,0 -4.49576,1.9650722 -4.49576,4.7889322 0,1.289335 0.24643,2.578956 0.61606,3.74477 0.18451,0.429616 0.8613,2.271415 2.15532,5.647719 l 1.84878,4.727087 c 1.04641,2.762429 1.66247,5.034082 1.66247,6.015935 0,0.798309 -0.30773,1.166763 -0.92379,1.166763 -1.23272,0 -3.32673,-2.210016 -5.17432,-5.586556 l -0.86249,-1.596142 -1.29462,0.736671 c 2.71067,5.647956 5.36003,8.165205 8.62486,8.165205 2.64817,0 4.43445,-1.903435 4.43445,-4.727264 0,-2.087455 -0.61546,-4.358632 -2.46365,-8.901699 l -2.21782,-5.525158 c -1.10831,-2.70198 -1.72438,-4.726582 -1.72438,-5.708656 0,-0.553138 0.49344,-1.105351 0.9857,-1.105351 1.72437,0 3.81839,2.455874 6.77488,7.857497 l 1.29403,-0.675035 c -1.78568,-3.621931 -3.07971,-5.463492 -5.23563,-7.305747 -1.35474,-1.166294 -2.58745,-1.7189712 -4.00409,-1.7189712" /><path
       inkscape:connector-curvature="0"
       id="path72"
       style="fill:#7b7979;fill-opacity:1;fill-rule:nonzero;stroke:none"
       d="m 234.7949,9.9832798 c -4.68088,0 -7.76059,3.1318292 -7.76059,7.7965552 0,3.560977 1.60056,8.226901 4.12672,11.97166 3.32613,5.033846 8.13141,8.103331 12.50455,8.103331 3.38744,0 5.78978,-2.025996 5.78978,-4.849647 0,-5.095719 -5.66716,-9.392952 -15.76819,-11.971125 l -0.30892,-1.596203 c -0.24642,-1.350723 -0.43034,-2.762668 -0.43034,-3.437465 0,-2.271652 1.29283,-3.806864 3.20232,-3.806864 2.21723,0 5.60585,2.332825 8.0082,5.586313 l 0.86309,1.228163 0.0602,0.0614 1.10951,-0.920395 c -1.78688,-2.824808 -2.8333,-4.05182 -5.0523,-5.771252 -2.09402,-1.658034 -4.12553,-2.39447 -6.34394,-2.39447 m 8.25403,26.336803 c -1.66248,0 -3.51066,-1.473581 -5.11242,-4.051755 -1.35474,-2.271236 -2.15532,-4.174671 -3.75708,-9.454172 l 1.72378,0.798071 c 4.74337,2.025818 8.9939,7.121299 8.9939,10.620461 0,1.166525 -0.80058,2.087395 -1.84818,2.087395" /><path
       inkscape:connector-curvature="0"
       id="path74"
       style="fill:#7b7979;fill-opacity:1;fill-rule:nonzero;stroke:none"
       d="m 275.26327,9.9832798 c -2.64936,0 -4.74337,2.0260152 -4.74337,4.6665782 0,1.963926 0.43213,3.62123 2.27972,8.83957 l 1.72438,4.911285 c 1.10891,3.253504 1.41724,4.297232 1.41724,5.341137 0,1.165873 -0.80177,1.964182 -1.84819,1.964182 -4.31123,0 -9.9784,-8.656043 -13.30454,-20.381838 l -1.35474,-4.726832 -5.35943,0 2.09401,7.305272 c 1.1095,3.868091 2.40234,9.392952 3.07971,12.769256 0.24642,1.105126 0.37023,2.087691 0.37023,2.946688 0,1.043727 -0.43154,1.719 -1.1089,1.719 -1.41605,0 -3.14102,-2.210016 -4.98981,-6.261593 l -0.67796,-1.534743 -1.29224,0.491016 c 2.27913,6.507722 5.23563,9.761406 8.80819,9.761406 2.52555,0 4.18802,-1.903435 4.18802,-4.727264 0,-1.350546 -0.12262,-2.087455 -0.73987,-5.525158 3.26483,5.279501 3.88208,6.015936 5.85288,7.796336 1.84818,1.65754 3.57197,2.456086 5.54395,2.456086 3.20234,0 5.35885,-2.333289 5.35885,-5.832154 0,-1.227984 -0.43273,-3.437939 -1.0482,-5.402596 l -2.46425,-7.673715 -1.47735,-4.481667 c -0.0619,-0.30635 -0.12321,-0.674798 -0.12321,-0.982536 0,-0.858326 0.49285,-1.472644 1.17021,-1.472644 1.8476,0 3.51007,1.964609 6.65227,8.041737 l 1.23213,-0.552238 c -2.95591,-6.630242 -5.72848,-9.4545712 -9.23973,-9.4545712" /><path
       inkscape:connector-curvature="0"
       id="path76"
       style="fill:#7b7979;fill-opacity:1;fill-rule:nonzero;stroke:none"
       d="m 295.52722,9.9832798 c -4.98861,0 -8.31475,3.4377162 -8.31475,8.4720652 0,3.437941 1.41605,7.673715 3.75768,11.29615 3.32614,5.095007 8.00642,8.042169 12.74979,8.042169 3.32614,0 5.85109,-1.964834 5.85109,-4.543304 0,-1.657541 -1.29223,-2.946687 -2.95589,-2.946687 -1.47856,0 -2.64937,1.166525 -2.64937,2.639453 0,0.675452 0.24761,1.227926 0.80058,1.903376 0.18512,0.245656 0.30833,0.429913 0.30833,0.552711 0,0.552178 -0.61546,0.92087 -1.41605,0.92087 -2.09401,0 -4.06541,-1.596142 -5.72907,-4.604229 -2.58686,-4.788723 -4.55826,-11.357311 -4.55826,-15.347726 0,-2.577983 1.54045,-4.235317 3.9428,-4.235317 2.9565,0 5.85109,2.332131 8.74627,7.182479 l 1.23272,-0.798308 c -1.41723,-2.455435 -2.03329,-3.437959 -3.38744,-4.788248 -2.40412,-2.517285 -5.1755,-3.7454542 -8.37843,-3.7454542" /><path
       inkscape:connector-curvature="0"
       id="path78"
       style="fill:#7b7979;fill-opacity:1;fill-rule:nonzero;stroke:none"
       d="m 318.37863,9.9832798 c -4.68028,0 -7.76059,3.1318292 -7.76059,7.7965552 0,3.560977 1.60116,8.226901 4.12612,11.97166 3.32733,5.033846 8.13201,8.103331 12.50574,8.103331 3.38685,0 5.78979,-2.025996 5.78979,-4.849647 0,-5.095719 -5.66776,-9.392952 -15.76878,-11.971125 l -0.30833,-1.596203 c -0.24642,-1.350723 -0.43154,-2.762668 -0.43154,-3.437465 0,-2.271652 1.29283,-3.806864 3.20292,-3.806864 2.21782,0 5.60586,2.332825 8.00701,5.586313 l 0.86368,1.228163 0.0613,0.0614 1.10891,-0.920395 c -1.78688,-2.824808 -2.83387,-4.05182 -5.05169,-5.771252 -2.09402,-1.658034 -4.12613,-2.39447 -6.34455,-2.39447 m 8.25403,26.336803 c -1.66246,0 -3.51065,-1.473581 -5.11182,-4.051755 -1.35474,-2.271236 -2.15531,-4.174671 -3.75768,-9.454172 l 1.72439,0.798071 c 4.74337,2.025818 8.9939,7.121299 8.9939,10.620461 0,1.166525 -0.80059,2.087395 -1.84879,2.087395" /><path
       inkscape:connector-curvature="0"
       id="path80"
       style="fill:#7b7979;fill-opacity:1;fill-rule:nonzero;stroke:none"
       d="m 218.85111,42.642837 c -1.35772,0 -2.44519,1.08288 -2.44519,2.391722 0,1.353511 1.08747,2.391187 2.44519,2.391187 1.31188,0 2.39937,-1.037676 2.39937,-2.391187 0,-1.308842 -1.08749,-2.391722 -2.39937,-2.391722" /></g></svg>